<?xml version="1.0" standalone="no"?>
<!DOCTYPE svg PUBLIC "-//W3C//DTD SVG 1.1//EN" "http://www.w3.org/Graphics/SVG/1.1/DTD/svg11.dtd" >
<svg xmlns="http://www.w3.org/2000/svg">
<metadata>Generated by IcoMoon</metadata>
<defs>
<font id="icomoon" horiz-adv-x="1024">
<font-face units-per-em="1024" ascent="960" descent="-64" />
<missing-glyph horiz-adv-x="1024" />
<glyph unicode="&#x20;" horiz-adv-x="512" d="" />
<glyph unicode="&#xe900;" glyph-name="AddressBook" d="M332.762 262.4c3.36-2.528 7.19-4.368 11.264-5.414 4.077-1.046 8.317-1.277 12.48-0.685 4.166 0.595 8.173 2.006 11.792 4.15s6.781 4.982 9.302 8.349c19.376 25.834 44.499 46.8 73.379 61.242 28.883 14.442 60.73 21.958 93.021 21.958s64.138-7.517 93.021-21.958c28.883-14.442 54.003-35.408 73.379-61.242 2.522-3.363 5.68-6.195 9.296-8.336s7.619-3.549 11.779-4.144c4.16-0.592 8.397-0.362 12.467 0.682s7.894 2.877 11.258 5.398c3.363 2.522 6.195 5.68 8.336 9.296s3.549 7.619 4.144 11.779c0.592 4.16 0.362 8.397-0.682 12.467s-2.877 7.894-5.398 11.258c-28.336 37.99-66.122 67.901-109.6 86.762 23.827 21.754 40.522 50.202 47.891 81.616 7.37 31.411 5.069 64.317-6.598 94.397-11.664 30.083-32.154 55.933-58.774 74.163-26.624 18.229-58.134 27.984-90.4 27.984-32.262 0-63.773-9.755-90.397-27.984-26.621-18.23-47.11-44.079-58.774-74.163-11.667-30.080-13.968-62.986-6.598-94.397 7.37-31.414 24.064-59.862 47.891-81.616-43.568-18.826-81.437-48.739-109.84-86.762-5.098-6.784-7.289-15.315-6.096-23.718 1.19-8.4 5.674-15.984 12.458-21.082zM448 512c0 18.986 5.629 37.549 16.179 53.334 10.547 15.789 25.542 28.093 43.082 35.357 17.542 7.267 36.845 9.168 55.469 5.466 18.621-3.706 35.728-12.848 49.152-26.275 13.427-13.424 22.57-30.531 26.275-49.152 3.702-18.624 1.802-37.926-5.466-55.469-7.264-17.539-19.568-32.534-35.357-43.082-15.786-10.55-34.349-16.179-53.334-16.179-25.459 0-49.878 10.115-67.882 28.118s-28.118 42.422-28.118 67.882zM832 864h-576c-16.974 0-33.252-6.743-45.255-18.745s-18.745-28.281-18.745-45.255v-96h-64c-8.487 0-16.626-3.372-22.628-9.372s-9.372-14.14-9.372-22.628c0-8.487 3.372-16.626 9.372-22.628s14.14-9.372 22.628-9.372h64v-160h-64c-8.487 0-16.626-3.373-22.628-9.373s-9.372-14.141-9.372-22.627c0-8.486 3.372-16.627 9.372-22.627s14.14-9.373 22.628-9.373h64v-160h-64c-8.487 0-16.626-3.373-22.628-9.373s-9.372-14.141-9.372-22.627c0-8.486 3.372-16.627 9.372-22.627s14.14-9.373 22.628-9.373h64v-96c0-16.973 6.743-33.251 18.745-45.254s28.281-18.746 45.255-18.746h576c16.973 0 33.251 6.742 45.254 18.746s18.746 28.282 18.746 45.254v704c0 16.974-6.742 33.252-18.746 45.255s-28.282 18.745-45.254 18.745zM832 96h-576v704h576v-704z" />
<glyph unicode="&#xe901;" glyph-name="Airplane" d="M942.32 444.64l-302.32 151.12v172.24c0 33.948-13.485 66.505-37.491 90.51-24.003 24.004-56.56 37.49-90.509 37.49s-66.506-13.486-90.509-37.49c-24.006-24.005-37.491-56.562-37.491-90.51v-172.24l-302.32-151.12c-5.316-2.659-9.787-6.749-12.909-11.808s-4.775-10.886-4.771-16.832v-128c0.003-4.733 1.055-9.408 3.082-13.683 2.027-4.278 4.977-8.054 8.639-11.053s7.943-5.149 12.535-6.294c4.593-1.146 9.382-1.258 14.024-0.33l281.72 56.32v-75.722l-54.64-54.598c-2.97-2.973-5.325-6.506-6.931-10.387-1.606-3.885-2.432-8.048-2.429-12.253v-128c-0.009-5.245 1.27-10.41 3.728-15.043 2.458-4.637 6.016-8.595 10.362-11.53s9.347-4.758 14.563-5.306c5.216-0.55 10.486 0.192 15.347 2.16l148 59.238 148-59.238c4.861-1.968 10.131-2.71 15.347-2.16 5.216 0.547 10.218 2.371 14.563 5.306s7.904 6.893 10.362 11.53c2.458 4.634 3.738 9.798 3.728 15.043v128c0.003 4.205-0.822 8.368-2.429 12.253-1.606 3.882-3.962 7.414-6.931 10.387l-54.64 54.598v75.722l281.718-56.32c4.643-0.928 9.434-0.816 14.026 0.33s8.874 3.296 12.534 6.294c3.661 2.998 6.611 6.774 8.64 11.053 2.026 4.275 3.078 8.95 3.082 13.683v128c0.003 5.946-1.648 11.773-4.771 16.832s-7.594 9.149-12.909 11.808zM896 327.040l-281.718 56.32c-4.643 0.928-9.434 0.816-14.026-0.33s-8.874-3.296-12.534-6.294c-3.661-2.998-6.611-6.774-8.64-11.053-2.026-4.275-3.078-8.95-3.082-13.683v-128c-0.003-4.205 0.822-8.368 2.429-12.253 1.606-3.882 3.962-7.414 6.931-10.387l54.64-54.598v-67.482l-116 46.438c-7.626 3.050-16.134 3.050-23.76 0l-116.24-46.438v67.482l54.64 54.598c2.97 2.973 5.325 6.506 6.931 10.387 1.606 3.885 2.432 8.048 2.429 12.253v128c-0.003 4.733-1.056 9.408-3.082 13.683-2.029 4.278-4.979 8.054-8.64 11.053s-7.942 5.149-12.534 6.294c-4.592 1.146-9.382 1.258-14.022 0.33l-281.722-56.32v69.2l302.32 151.12c5.315 2.659 9.786 6.749 12.909 11.808s4.774 10.886 4.771 16.832v192c0 16.974 6.742 33.252 18.746 45.255s28.282 18.745 45.254 18.745c16.973 0 33.251-6.743 45.254-18.745s18.746-28.281 18.746-45.255v-192c-0.003-5.946 1.648-11.773 4.771-16.832s7.594-9.149 12.909-11.808l302.32-151.12v-69.2z" />
<glyph unicode="&#xe902;" glyph-name="AirplaneInFlight" d="M896 96c0-8.486-3.37-16.627-9.373-22.627-6-6-14.141-9.373-22.627-9.373h-575.999c-8.487 0-16.626 3.373-22.628 9.373s-9.372 14.141-9.372 22.627c0 8.486 3.372 16.627 9.372 22.627s14.14 9.373 22.628 9.373h575.999c8.486 0 16.627-3.373 22.627-9.373 6.003-6 9.373-14.141 9.373-22.627zM992 416v-96c0-8.486-3.37-16.627-9.373-22.627-6-6-14.141-9.373-22.627-9.373h-715.719c-34.449-0.157-68.017 10.877-95.654 31.443s-47.845 49.552-57.586 82.595l-56.28 187.562c-2.867 9.552-3.463 19.642-1.738 29.466 1.724 9.821 5.72 19.107 11.669 27.111s13.686 14.508 22.595 18.991c8.908 4.484 18.741 6.823 28.715 6.832h32c8.476-0.004 16.604-3.37 22.6-9.36l86.68-86.64h89.961l-36.001 107.76c-3.208 9.624-4.083 19.873-2.551 29.902s5.425 19.549 11.36 27.777c5.935 8.228 13.74 14.927 22.773 19.545s19.034 7.023 29.178 7.016h32c4.205 0.003 8.368-0.822 12.253-2.428s7.414-3.962 10.387-6.932l182.64-182.64h242.72c42.435 0 83.133-16.858 113.139-46.864 30.003-30.003 46.861-70.701 46.861-113.136zM928 416c0 25.459-10.112 49.878-28.118 67.882-18.003 18.003-42.419 28.118-67.882 28.118h-256c-8.474 0.003-16.602 3.37-22.598 9.36l-182.64 182.64h-18.762l49.962-149.882c1.6-4.806 2.038-9.926 1.277-14.934-0.762-5.011-2.704-9.766-5.664-13.878s-6.854-7.466-11.363-9.776c-4.509-2.314-9.504-3.523-14.57-3.53h-147.641c-4.204-0.003-8.366 0.822-12.251 2.429s-7.415 3.962-10.389 6.931l-86.6 86.64h-18.76l56.28-187.6c5.852-19.83 17.987-37.222 34.58-49.562 16.593-12.336 36.744-18.947 57.42-18.838h683.719v64z" />
<glyph unicode="&#xe903;" glyph-name="AirplaneLanding" d="M992 96c0-8.486-3.373-16.627-9.373-22.627-6-6.003-14.141-9.373-22.627-9.373h-576c-8.486 0-16.627 3.37-22.627 9.373-6 6-9.373 14.141-9.373 22.627s3.373 16.624 9.373 22.627c6 6 14.141 9.373 22.627 9.373h576c8.486 0 16.627-3.373 22.627-9.373 6-6.003 9.373-14.141 9.373-22.627zM887.36 193.2l-706.52 197.84c-33.578 9.488-63.149 29.661-84.233 57.466-21.084 27.802-32.531 61.722-32.607 96.614v222.879c-0.001 10.141 2.409 20.138 7.029 29.165s11.321 16.828 19.548 22.758c8.227 5.93 17.746 9.82 27.771 11.349s20.271 0.654 29.892-2.553l21.88-7.28c4.589-1.525 8.772-4.070 12.236-7.444s6.118-7.489 7.764-12.036l42.4-117.48 119.48-34.040v117.56c0 10.141 2.41 20.138 7.030 29.165s11.318 16.828 19.546 22.758c8.227 5.93 17.747 9.82 27.773 11.349s20.269 0.654 29.891-2.553l21.878-7.28c4.333-1.443 8.304-3.796 11.648-6.9 3.347-3.105 5.99-6.889 7.754-11.1l90-214.521 243.36-68c33.648-9.45 63.29-29.619 84.429-57.45 21.139-27.834 32.618-61.802 32.691-96.749v-142.72c-0.003-4.941-1.146-9.811-3.344-14.234s-5.392-8.275-9.328-11.258c-3.936-2.986-8.509-5.018-13.36-5.936-4.854-0.922-9.853-0.707-14.608 0.627zM864 366.72c-0.054 20.973-6.954 41.354-19.645 58.051s-30.483 28.8-50.675 34.467l-258.278 72c-4.653 1.296-8.954 3.629-12.576 6.822s-6.477 7.165-8.346 11.619l-90.48 215.639-8 2.68v-159.999c0.003-4.954-1.142-9.837-3.347-14.272s-5.411-8.298-9.36-11.283c-3.952-2.986-8.541-5.011-13.408-5.923-4.87-0.909-9.882-0.678-14.646 0.678l-175.998 50.16c-4.887 1.398-9.37 3.946-13.077 7.421-3.708 3.478-6.533 7.791-8.243 12.578l-42.76 118.28-7.16 2.36v-222.879c0.052-20.941 6.924-41.296 19.576-57.981 12.652-16.688 30.395-28.797 50.544-34.499l665.88-186.442v100.522z" />
<glyph unicode="&#xe904;" glyph-name="AirplaneTakeoff" d="M704 96c0-8.486-3.373-16.627-9.373-22.627s-14.141-9.373-22.627-9.373h-576.001c-8.487 0-16.626 3.373-22.627 9.373s-9.373 14.141-9.373 22.627c0 8.486 3.372 16.627 9.373 22.627s14.14 9.373 22.627 9.373h576.001c8.486 0 16.627-3.373 22.627-9.373s9.373-14.141 9.373-22.627zM991.44 587.402c-0.838-4.454-2.611-8.682-5.203-12.397-2.595-3.718-5.946-6.842-9.837-9.165l-589.642-352c-24.576-14.413-52.547-22.032-81.039-22.080-40.587 0.045-79.623 15.6-109.12 43.482l-0.48 0.48-144.12 141.078c-7.625 7.242-13.348 16.25-16.664 26.23-3.316 9.978-4.121 20.621-2.346 30.986s6.078 20.131 12.526 28.438c6.448 8.307 14.844 14.896 24.444 19.187l12 5.878c7.578 3.722 16.32 4.294 24.32 1.6l113.040-38.16 80.68 48.8-87.32 84.762c-7.853 7.232-13.771 16.317-17.215 26.426-3.444 10.106-4.305 20.912-2.503 31.438 1.801 10.524 6.207 20.431 12.816 28.817s15.211 14.986 25.022 19.198l1.28 0.52 28.6 10.84c7.211 2.689 15.149 2.689 22.36 0l215.761-79.28 206.278 123.12c32.874 19.564 71.69 26.644 109.354 19.946 37.661-6.698 71.658-26.727 95.766-56.426l0.48-0.6 74.56-95.56c2.787-3.578 4.781-7.706 5.85-12.112s1.187-8.992 0.352-13.446zM912.48 602.202l-52 66.679c-14.474 17.705-34.819 29.631-57.338 33.609s-45.718-0.254-65.382-11.929l-219.2-130.88c-4.106-2.435-8.701-3.926-13.453-4.368-4.752-0.445-9.542 0.173-14.029 1.808l-219.079 80.56-16-6.118 0.84-0.8 117.439-113.962c3.507-3.408 6.189-7.574 7.834-12.179 1.648-4.605 2.214-9.526 1.664-14.384-0.554-4.861-2.211-9.526-4.851-13.645-2.637-4.118-6.182-7.578-10.365-10.112l-128.841-77.958c-3.986-2.41-8.449-3.917-13.077-4.422-4.629-0.502-9.312 0.010-13.723 1.501l-114.68 38.682-0.76-0.4-1.48-0.682c0.193-0.138 0.367-0.298 0.52-0.48l144-141.040c15.028-14.122 34.228-22.995 54.722-25.286 20.494-2.294 41.181 2.115 58.957 12.566l558.282 333.242z" />
<glyph unicode="&#xe905;" glyph-name="AirplaneTilt" d="M741.322 503.162l117.238 110.358c24.006 24.006 37.494 56.569 37.494 90.52s-13.488 66.513-37.494 90.52c-24.006 24.007-56.57 37.495-90.518 37.495-33.952 0-66.515-13.487-90.522-37.495 0-0.24-0.438-0.44-0.678-0.68l-109.68-116.56-332.001 120.8c-5.722 2.081-11.919 2.487-17.864 1.169s-11.39-4.304-15.696-8.609l-96-96c-3.345-3.348-5.906-7.396-7.499-11.853s-2.176-9.212-1.709-13.921c0.467-4.71 1.972-9.257 4.409-13.315s5.742-7.524 9.679-10.151l255.561-170.358-59.281-59.082h-82.76c-8.476-0.003-16.604-3.37-22.6-9.36l-96-96c-3.744-3.734-6.504-8.339-8.033-13.402s-1.78-10.426-0.73-15.606c1.050-5.184 3.368-10.026 6.747-14.093 3.379-4.070 7.714-7.235 12.616-9.219l147.28-58.918 59.040-147.642c2.035-4.925 5.267-9.261 9.402-12.621s9.043-5.632 14.278-6.614c5.238-0.979 10.637-0.64 15.709 0.995 5.069 1.632 9.651 4.506 13.331 8.362l95.482 95.52c2.986 2.957 5.36 6.477 6.989 10.355 1.626 3.878 2.474 8.038 2.49 12.243v82.762l59.040 59.040 170.362-255.562c2.624-3.936 6.093-7.242 10.15-9.68 4.058-2.435 8.605-3.939 13.315-4.406 4.707-0.467 9.462 0.115 13.92 1.709 4.458 1.59 8.506 4.154 11.853 7.498l96 96c4.304 4.307 7.293 9.75 8.608 15.696 1.318 5.946 0.912 12.141-1.168 17.866l-120.758 332.24zM741.040 114.24l-170.358 255.52c-2.614 3.968-6.074 7.302-10.138 9.766-4.061 2.464-8.618 3.99-13.344 4.474-1.078 0-2.118 0-3.158 0-4.208-0.003-8.371-0.832-12.256-2.445s-7.414-3.978-10.384-6.954l-96-96c-6.006-5.99-9.386-14.122-9.402-22.602v-82.758l-52.278-52.282-46.001 115.040c-1.61 3.994-4.008 7.622-7.053 10.666-3.045 3.046-6.673 5.446-10.667 7.056l-114.96 46 52.24 52.278h82.72c4.205-0.003 8.368 0.822 12.253 2.429s7.414 3.962 10.387 6.931l96 96c3.354 3.347 5.92 7.398 7.517 11.859s2.182 9.222 1.715 13.936c-0.467 4.717-1.974 9.267-4.416 13.328-2.438 4.064-5.75 7.533-9.696 10.157l-255.52 170.4 54 53.96 332.88-121.038c5.866-2.157 12.234-2.547 18.317-1.126 6.086 1.421 11.619 4.595 15.923 9.126l123.76 131.638c12.064 11.71 28.25 18.204 45.059 18.077 16.813-0.127 32.899-6.863 44.784-18.753s18.614-27.98 18.733-44.791c0.122-16.812-6.381-32.995-18.096-45.052l-131.478-123.72c-4.531-4.304-7.702-9.837-9.126-15.923-1.421-6.083-1.030-12.451 1.126-18.317l121.040-332.88-54.122-54z" />
<glyph unicode="&#xe906;" glyph-name="Airplay" d="M536.32 340.842c-3.005 3.504-6.733 6.32-10.925 8.25-4.195 1.93-8.758 2.928-13.376 2.928s-9.178-0.998-13.373-2.928c-4.195-1.93-7.923-4.746-10.925-8.25l-192.002-224c-3.987-4.646-6.557-10.339-7.407-16.4s0.057-12.24 2.613-17.802c2.556-5.562 6.653-10.275 11.806-13.581 5.153-3.302 11.146-5.059 17.267-5.059h384c6.122 0 12.115 1.757 17.267 5.059 5.152 3.306 9.251 8.019 11.808 13.581 2.554 5.562 3.462 11.741 2.611 17.802-0.848 6.061-3.421 11.754-7.405 16.4l-191.962 224zM389.558 128l122.442 142.842 122.442-142.842h-244.883zM928 704v-448c0-25.459-10.115-49.878-28.118-67.882s-42.422-28.118-67.882-28.118h-64c-8.486 0-16.627 3.373-22.627 9.373s-9.373 14.141-9.373 22.627c0 8.486 3.373 16.627 9.373 22.627s14.141 9.373 22.627 9.373h64c8.486 0 16.627 3.373 22.627 9.373s9.373 14.141 9.373 22.627v448c0 8.487-3.373 16.626-9.373 22.628s-14.141 9.372-22.627 9.372h-640c-8.487 0-16.626-3.372-22.628-9.372s-9.372-14.14-9.372-22.628v-448c0-8.486 3.372-16.627 9.372-22.627s14.14-9.373 22.628-9.373h64c8.487 0 16.626-3.373 22.628-9.373s9.372-14.141 9.372-22.627c0-8.486-3.372-16.627-9.372-22.627s-14.14-9.373-22.628-9.373h-64c-25.461 0-49.879 10.115-67.882 28.118s-28.118 42.422-28.118 67.882v448c0 25.461 10.114 49.879 28.118 67.882s42.421 28.118 67.882 28.118h640c25.459 0 49.878-10.114 67.882-28.118s28.118-42.421 28.118-67.882z" />
<glyph unicode="&#xe907;" glyph-name="AirTrafficControl" d="M916.442 708.72c-5.904 8.428-13.754 15.308-22.883 20.057s-19.267 7.227-29.558 7.223h-320v128h64c8.486 0 16.627 3.372 22.627 9.372 6.003 6.001 9.373 14.14 9.373 22.628s-3.37 16.626-9.373 22.628c-6 6.001-14.141 9.372-22.627 9.372h-192c-8.486 0-16.624-3.372-22.627-9.372-6-6.001-9.373-14.14-9.373-22.628s3.373-16.626 9.373-22.628c6.003-6.001 14.141-9.372 22.627-9.372h64v-128h-319.999c-10.276-0.023-20.395-2.52-29.502-7.28s-16.934-11.642-22.819-20.066c-5.885-8.423-9.655-18.14-10.992-28.329s-0.2-20.549 3.313-30.205l104.76-288.002c4.482-12.32 12.641-22.966 23.372-30.499s23.517-11.59 36.628-11.619h119.239v-256c0-8.486 3.373-16.627 9.373-22.627 6.003-6 14.141-9.373 22.627-9.373s16.627 3.373 22.627 9.373c6.003 6 9.373 14.141 9.373 22.627v256h128v-256c0-8.486 3.373-16.627 9.373-22.627 6.003-6 14.141-9.373 22.627-9.373s16.627 3.373 22.627 9.373c6.003 6 9.373 14.141 9.373 22.627v256h119.28c13.114 0.029 25.898 4.086 36.63 11.619 10.73 7.533 18.89 18.179 23.37 30.499l104.762 288.002c3.536 9.66 4.691 20.029 3.366 30.23-1.322 10.201-5.085 19.932-10.966 28.37zM442.72 384l-52.4 288h243.36l-52.4-288h-138.56zM160.001 672h165.279l52.362-288h-112.921l-104.72 288zM759.28 384h-112.918l52.358 288h165.28l-104.72-288z" />
<glyph unicode="&#xe908;" glyph-name="Alarm" d="M512.003 831.998c-75.949 0-150.192-22.521-213.34-64.716s-112.367-102.167-141.431-172.335c-29.064-70.166-36.668-147.376-21.852-221.866 14.817-74.486 51.389-142.909 105.093-196.611 53.703-53.706 122.125-90.278 196.615-105.094s151.699-7.213 221.866 21.853c70.166 29.062 130.138 78.282 172.333 141.43s64.717 137.392 64.717 213.338c-0.118 101.808-40.611 199.413-112.602 271.401-71.987 71.989-169.594 112.483-271.398 112.6zM512.003 127.997c-63.29 0-125.158 18.768-177.782 53.93s-93.64 85.139-117.86 143.613c-24.22 58.474-30.557 122.813-18.21 184.886s42.824 119.094 87.577 163.846c44.752 44.753 101.773 75.23 163.846 87.577s126.413 6.010 184.886-18.21c58.474-24.22 108.451-65.235 143.613-117.86s53.93-114.493 53.93-177.782c-0.096-84.838-33.84-166.176-93.834-226.166-59.99-59.994-141.328-93.738-226.166-93.834zM246.642 841.358l-128-128c-2.973-2.973-6.503-5.332-10.388-6.94s-8.048-2.437-12.252-2.437c-4.205 0-8.368 0.828-12.253 2.437s-7.414 3.967-10.387 6.94c-6.004 6.004-9.378 14.148-9.378 22.64s3.373 16.636 9.378 22.64l128 128c2.973 2.973 6.503 5.332 10.387 6.941s8.048 2.437 12.253 2.437c4.204 0 8.368-0.828 12.252-2.437s7.414-3.968 10.388-6.941c2.973-2.973 5.332-6.503 6.94-10.387s2.437-8.048 2.437-12.253c0-4.204-0.828-8.368-2.437-12.252s-3.967-7.414-6.94-10.388zM950.643 713.358c-2.973-2.975-6.502-5.335-10.387-6.946s-8.048-2.439-12.253-2.439c-4.205 0-8.371 0.829-12.256 2.439s-7.414 3.971-10.384 6.946l-128 128c-6.006 6.004-9.379 14.148-9.379 22.64s3.373 16.636 9.379 22.64c6.003 6.004 14.147 9.378 22.64 9.378 8.49 0 16.634-3.373 22.64-9.378l128-128c2.973-2.972 5.334-6.501 6.944-10.386 1.613-3.885 2.442-8.049 2.442-12.254s-0.829-8.369-2.442-12.254c-1.61-3.885-3.971-7.414-6.944-10.386zM736.003 479.997c8.486 0 16.624-3.37 22.627-9.373 6-6 9.373-14.141 9.373-22.627s-3.373-16.624-9.373-22.627c-6.003-6-14.141-9.373-22.627-9.373h-224c-8.486 0-16.627 3.373-22.627 9.373-6.003 6.003-9.373 14.141-9.373 22.627v224.001c0 8.487 3.37 16.626 9.373 22.628 6 6.001 14.141 9.372 22.627 9.372s16.624-3.371 22.627-9.372c6-6.001 9.373-14.14 9.373-22.628v-192.001h192z" />
<glyph unicode="&#xe909;" glyph-name="Alien" d="M512 896c-101.808-0.116-199.412-40.611-271.4-112.6s-112.483-169.592-112.6-271.4c0-96 50.24-220.24 134.44-332 84.722-112.598 178.002-180 249.56-180s164.838 67.238 249.558 180c84.202 112 134.442 236 134.442 332-0.115 101.808-40.611 199.412-112.598 271.4-71.99 71.989-169.594 112.483-271.402 112.6zM710.442 218.32c-69.482-92.278-149.203-154.32-198.442-154.32s-128.96 62.042-198.44 154.32c-74.96 99.68-121.56 212.198-121.56 293.68 0 84.87 33.714 166.262 93.726 226.274s141.404 93.726 226.274 93.726c84.87 0 166.262-33.714 226.275-93.726 60.010-60.012 93.725-141.404 93.725-226.274 0-81.482-46.598-194-121.558-293.68zM480 416c0 42.435-16.858 83.133-46.864 113.136-30.003 30.006-70.701 46.864-113.136 46.864-16.974 0-33.252-6.742-45.255-18.746s-18.745-28.282-18.745-45.254c0-42.435 16.857-83.133 46.863-113.136 30.004-30.006 70.702-46.864 113.137-46.864 16.973 0 33.251 6.742 45.254 18.746s18.746 28.282 18.746 45.254zM320 512c25.459 0 49.878-10.115 67.882-28.118s28.118-42.422 28.118-67.882c-25.459 0-49.878 10.115-67.882 28.118s-28.118 42.422-28.118 67.882zM704 576c-42.435 0-83.133-16.858-113.136-46.864-30.006-30.003-46.864-70.701-46.864-113.136 0-16.973 6.742-33.251 18.746-45.254s28.282-18.746 45.254-18.746c21.011 0 41.818 4.138 61.229 12.179s37.050 19.827 51.907 34.685c14.858 14.858 26.643 32.496 34.685 51.907s12.179 40.218 12.179 61.229c0 16.973-6.742 33.251-18.746 45.254s-28.282 18.746-45.254 18.746zM608 416c0 25.459 10.115 49.878 28.118 67.882s42.422 28.118 67.882 28.118c0-25.459-10.115-49.878-28.118-67.882s-42.422-28.118-67.882-28.118zM608 224c0-8.486-3.373-16.627-9.373-22.627s-14.141-9.373-22.627-9.373h-128c-8.486 0-16.627 3.373-22.627 9.373s-9.373 14.141-9.373 22.627c0 8.486 3.373 16.627 9.373 22.627s14.141 9.373 22.627 9.373h128c8.486 0 16.627-3.373 22.627-9.373s9.373-14.141 9.373-22.627z" />
<glyph unicode="&#xe90a;" glyph-name="AlignBottom" d="M896 96c0-8.486-3.373-16.627-9.373-22.627s-14.141-9.373-22.627-9.373h-704c-8.487 0-16.626 3.373-22.628 9.373s-9.372 14.141-9.372 22.627c0 8.486 3.372 16.627 9.372 22.627s14.14 9.373 22.628 9.373h704c8.486 0 16.627-3.373 22.627-9.373s9.373-14.141 9.373-22.627zM544 256v384c0 16.974 6.742 33.252 18.746 45.255s28.282 18.745 45.254 18.745h160c16.973 0 33.251-6.743 45.254-18.745s18.746-28.281 18.746-45.255v-384c0-16.973-6.742-33.251-18.746-45.254s-28.282-18.746-45.254-18.746h-160c-16.973 0-33.251 6.742-45.254 18.746s-18.746 28.282-18.746 45.254zM608 256h160v384h-160v-384zM192 256v544c0 16.974 6.743 33.252 18.745 45.255s28.281 18.745 45.255 18.745h160c16.973 0 33.251-6.743 45.254-18.745s18.746-28.281 18.746-45.255v-544c0-16.973-6.742-33.251-18.746-45.254s-28.282-18.746-45.254-18.746h-160c-16.974 0-33.252 6.742-45.255 18.746s-18.745 28.282-18.745 45.254zM256 256h160v544h-160v-544z" />
<glyph unicode="&#xe90b;" glyph-name="AlignBottomSimple" d="M832 32c0-8.486-3.373-16.627-9.373-22.627s-14.141-9.373-22.627-9.373h-576c-8.487 0-16.626 3.373-22.628 9.373s-9.372 14.141-9.372 22.627c0 8.486 3.372 16.627 9.372 22.627s14.14 9.373 22.628 9.373h576c8.486 0 16.627-3.373 22.627-9.373s9.373-14.141 9.373-22.627zM320 192v608c0 16.974 6.742 33.252 18.746 45.255s28.282 18.745 45.254 18.745h256c16.973 0 33.251-6.743 45.254-18.745s18.746-28.281 18.746-45.255v-608c0-16.973-6.742-33.251-18.746-45.254s-28.282-18.746-45.254-18.746h-256c-16.973 0-33.251 6.742-45.254 18.746s-18.746 28.282-18.746 45.254zM384 192h256v608h-256v-608z" />
<glyph unicode="&#xe90c;" glyph-name="AlignCenterHorizontal" d="M832 416h-288v64h192c16.973 0 33.251 6.742 45.254 18.746s18.746 28.282 18.746 45.254v160c0 16.974-6.742 33.252-18.746 45.255s-28.282 18.745-45.254 18.745h-192v64c0 8.487-3.373 16.626-9.373 22.628s-14.141 9.372-22.627 9.372c-8.486 0-16.627-3.372-22.627-9.372s-9.373-14.14-9.373-22.628v-64h-192c-16.974 0-33.252-6.743-45.255-18.745s-18.745-28.281-18.745-45.255v-160c0-16.973 6.743-33.251 18.745-45.254s28.281-18.746 45.255-18.746h192v-64h-288c-16.974 0-33.252-6.742-45.255-18.746s-18.745-28.282-18.745-45.254v-160c0-16.973 6.743-33.251 18.745-45.254s28.281-18.746 45.255-18.746h288v-64c0-8.486 3.373-16.627 9.373-22.627s14.141-9.373 22.627-9.373c8.486 0 16.627 3.373 22.627 9.373s9.373 14.141 9.373 22.627v64h288c16.973 0 33.251 6.742 45.254 18.746s18.746 28.282 18.746 45.254v160c0 16.973-6.742 33.251-18.746 45.254s-28.282 18.746-45.254 18.746zM288 704h448v-160h-448v160zM832 192h-640v160h640v-160z" />
<glyph unicode="&#xe90d;" glyph-name="AlignCenterHorizontalSimple" d="M832 640h-288v128c0 8.487-3.373 16.626-9.373 22.628s-14.141 9.372-22.627 9.372c-8.486 0-16.627-3.372-22.627-9.372s-9.373-14.14-9.373-22.628v-128h-288c-16.974 0-33.252-6.742-45.255-18.746s-18.745-28.282-18.745-45.254v-256c0-16.973 6.743-33.251 18.745-45.254s28.281-18.746 45.255-18.746h288v-128c0-8.486 3.373-16.627 9.373-22.627s14.141-9.373 22.627-9.373c8.486 0 16.627 3.373 22.627 9.373s9.373 14.141 9.373 22.627v128h288c16.973 0 33.251 6.742 45.254 18.746s18.746 28.282 18.746 45.254v256c0 16.973-6.742 33.251-18.746 45.254s-28.282 18.746-45.254 18.746zM832 320h-640v256h640v-256z" />
<glyph unicode="&#xe90e;" glyph-name="AlignCenterVertical" d="M896 480h-64v192c0 16.974-6.742 33.252-18.746 45.255s-28.282 18.745-45.254 18.745h-160c-16.973 0-33.251-6.743-45.254-18.745s-18.746-28.281-18.746-45.255v-192h-64v288c0 16.974-6.742 33.252-18.746 45.255s-28.282 18.745-45.254 18.745h-160c-16.974 0-33.252-6.743-45.255-18.745s-18.745-28.281-18.745-45.255v-288h-64c-8.487 0-16.626-3.373-22.628-9.373s-9.372-14.141-9.372-22.627c0-8.486 3.372-16.627 9.372-22.627s14.14-9.373 22.628-9.373h64v-288c0-16.973 6.743-33.251 18.745-45.254s28.281-18.746 45.255-18.746h160c16.973 0 33.251 6.742 45.254 18.746s18.746 28.282 18.746 45.254v288h64v-192c0-16.973 6.742-33.251 18.746-45.254s28.282-18.746 45.254-18.746h160c16.973 0 33.251 6.742 45.254 18.746s18.746 28.282 18.746 45.254v192h64c8.486 0 16.627 3.373 22.627 9.373s9.373 14.141 9.373 22.627c0 8.486-3.373 16.627-9.373 22.627s-14.141 9.373-22.627 9.373zM416 128h-160v640h160v-640zM768 224h-160v448h160v-448z" />
<glyph unicode="&#xe90f;" glyph-name="AlignCenterVerticalSimple" d="M832 480h-128v288c0 16.974-6.742 33.252-18.746 45.255s-28.282 18.745-45.254 18.745h-256c-16.973 0-33.251-6.743-45.254-18.745s-18.746-28.281-18.746-45.255v-288h-128c-8.487 0-16.626-3.373-22.628-9.373s-9.372-14.141-9.372-22.627c0-8.486 3.372-16.627 9.372-22.627s14.14-9.373 22.628-9.373h128v-288c0-16.973 6.742-33.251 18.746-45.254s28.282-18.746 45.254-18.746h256c16.973 0 33.251 6.742 45.254 18.746s18.746 28.282 18.746 45.254v288h128c8.486 0 16.627 3.373 22.627 9.373s9.373 14.141 9.373 22.627c0 8.486-3.373 16.627-9.373 22.627s-14.141 9.373-22.627 9.373zM640 128h-256v640h256v-640z" />
<glyph unicode="&#xe910;" glyph-name="AlignLeft" d="M192 800v-704c0-8.486-3.372-16.627-9.372-22.627s-14.14-9.373-22.628-9.373c-8.487 0-16.626 3.373-22.628 9.373s-9.372 14.141-9.372 22.627v704c0 8.487 3.372 16.626 9.372 22.628s14.14 9.372 22.628 9.372c8.487 0 16.626-3.372 22.628-9.372s9.372-14.14 9.372-22.628zM256 544v160c0 16.974 6.743 33.252 18.745 45.255s28.281 18.745 45.255 18.745h384c16.973 0 33.251-6.743 45.254-18.745s18.746-28.281 18.746-45.255v-160c0-16.973-6.742-33.251-18.746-45.254s-28.282-18.746-45.254-18.746h-384c-16.974 0-33.252 6.742-45.255 18.746s-18.745 28.282-18.745 45.254zM320 544h384v160h-384v-160zM928 352v-160c0-16.973-6.742-33.251-18.746-45.254s-28.282-18.746-45.254-18.746h-544c-16.974 0-33.252 6.742-45.255 18.746s-18.745 28.282-18.745 45.254v160c0 16.973 6.743 33.251 18.745 45.254s28.281 18.746 45.255 18.746h544c16.973 0 33.251-6.742 45.254-18.746s18.746-28.282 18.746-45.254zM864 192v160h-544v-160h544z" />
<glyph unicode="&#xe911;" glyph-name="AlignLeftSimple" d="M160 736v-576c0-8.486-3.372-16.627-9.372-22.627s-14.14-9.373-22.628-9.373c-8.487 0-16.626 3.373-22.628 9.373s-9.372 14.141-9.372 22.627v576c0 8.487 3.372 16.626 9.372 22.628s14.14 9.372 22.628 9.372c8.487 0 16.626-3.372 22.628-9.372s9.372-14.14 9.372-22.628zM960 576v-256c0-16.973-6.742-33.251-18.746-45.254s-28.282-18.746-45.254-18.746h-608c-16.974 0-33.252 6.742-45.255 18.746s-18.745 28.282-18.745 45.254v256c0 16.973 6.743 33.251 18.745 45.254s28.281 18.746 45.255 18.746h608c16.973 0 33.251-6.742 45.254-18.746s18.746-28.282 18.746-45.254zM896 320v256h-608v-256h608z" />
<glyph unicode="&#xe912;" glyph-name="AlignRight" d="M896 800v-704c0-8.486-3.373-16.627-9.373-22.627s-14.141-9.373-22.627-9.373c-8.486 0-16.627 3.373-22.627 9.373s-9.373 14.141-9.373 22.627v704c0 8.487 3.373 16.626 9.373 22.628s14.141 9.372 22.627 9.372c8.486 0 16.627-3.372 22.627-9.372s9.373-14.14 9.373-22.628zM768 704v-160c0-16.973-6.742-33.251-18.746-45.254s-28.282-18.746-45.254-18.746h-384c-16.974 0-33.252 6.742-45.255 18.746s-18.745 28.282-18.745 45.254v160c0 16.974 6.743 33.252 18.745 45.255s28.281 18.745 45.255 18.745h384c16.973 0 33.251-6.743 45.254-18.745s18.746-28.281 18.746-45.255zM704 704h-384v-160h384v160zM768 352v-160c0-16.973-6.742-33.251-18.746-45.254s-28.282-18.746-45.254-18.746h-544c-16.974 0-33.252 6.742-45.255 18.746s-18.745 28.282-18.745 45.254v160c0 16.973 6.743 33.251 18.745 45.254s28.281 18.746 45.255 18.746h544c16.973 0 33.251-6.742 45.254-18.746s18.746-28.282 18.746-45.254zM704 352h-544v-160h544v160z" />
<glyph unicode="&#xe913;" glyph-name="AlignRightSimple" d="M928 736v-576c0-8.486-3.373-16.627-9.373-22.627s-14.141-9.373-22.627-9.373c-8.486 0-16.627 3.373-22.627 9.373s-9.373 14.141-9.373 22.627v576c0 8.487 3.373 16.626 9.373 22.628s14.141 9.372 22.627 9.372c8.486 0 16.627-3.372 22.627-9.372s9.373-14.14 9.373-22.628zM800 576v-256c0-16.973-6.742-33.251-18.746-45.254s-28.282-18.746-45.254-18.746h-608c-16.974 0-33.252 6.742-45.255 18.746s-18.745 28.282-18.745 45.254v256c0 16.973 6.743 33.251 18.745 45.254s28.281 18.746 45.255 18.746h608c16.973 0 33.251-6.742 45.254-18.746s18.746-28.282 18.746-45.254zM736 576h-608v-256h608v256z" />
<glyph unicode="&#xe914;" glyph-name="AlignTop" d="M896 800c0-8.487-3.373-16.626-9.373-22.628s-14.141-9.372-22.627-9.372h-704c-8.487 0-16.626 3.372-22.628 9.372s-9.372 14.14-9.372 22.628c0 8.487 3.372 16.626 9.372 22.628s14.14 9.372 22.628 9.372h704c8.486 0 16.627-3.372 22.627-9.372s9.373-14.14 9.373-22.628zM832 640v-384c0-16.973-6.742-33.251-18.746-45.254s-28.282-18.746-45.254-18.746h-160c-16.973 0-33.251 6.742-45.254 18.746s-18.746 28.282-18.746 45.254v384c0 16.974 6.742 33.252 18.746 45.255s28.282 18.745 45.254 18.745h160c16.973 0 33.251-6.743 45.254-18.745s18.746-28.281 18.746-45.255zM768 640h-160v-384h160v384zM480 640v-544c0-16.973-6.742-33.251-18.746-45.254s-28.282-18.746-45.254-18.746h-160c-16.974 0-33.252 6.742-45.255 18.746s-18.745 28.282-18.745 45.254v544c0 16.974 6.743 33.252 18.745 45.255s28.281 18.745 45.255 18.745h160c16.973 0 33.251-6.743 45.254-18.745s18.746-28.281 18.746-45.255zM416 640h-160v-544h160v544z" />
<glyph unicode="&#xe915;" glyph-name="AlignTopSimple" d="M832 832c0-8.487-3.373-16.626-9.373-22.628s-14.141-9.372-22.627-9.372h-576c-8.487 0-16.626 3.372-22.628 9.372s-9.372 14.14-9.372 22.628c0 8.487 3.372 16.626 9.372 22.628s14.14 9.372 22.628 9.372h576c8.486 0 16.627-3.372 22.627-9.372s9.373-14.14 9.373-22.628zM704 672v-608c0-16.973-6.742-33.251-18.746-45.254s-28.282-18.746-45.254-18.746h-256c-16.973 0-33.251 6.742-45.254 18.746s-18.746 28.282-18.746 45.254v608c0 16.974 6.742 33.252 18.746 45.255s28.282 18.745 45.254 18.745h256c16.973 0 33.251-6.743 45.254-18.745s18.746-28.281 18.746-45.255zM640 672h-256v-608h256v608z" />
<glyph unicode="&#xe916;" glyph-name="AmazonLogo" d="M992 287.997v-128c0-8.486-3.373-16.624-9.373-22.627-6-6-14.141-9.373-22.627-9.373s-16.627 3.373-22.627 9.373c-6 6.003-9.373 14.141-9.373 22.627v50.762l-8.842-8.88c-12.4-13.482-161.398-169.882-407.158-169.882-251.36 0-401.52 163.642-407.8 170.602-5.676 6.339-8.601 14.672-8.132 23.168 0.469 8.493 4.293 16.454 10.632 22.131s14.672 8.602 23.168 8.131c8.495-0.467 16.457-4.291 22.132-10.63 1.080-1.402 138-149.402 360-149.402s358.922 148 360.282 149.44c0.336 0.419 0.698 0.819 1.078 1.2l9.402 9.36h-50.762c-8.486 0-16.627 3.373-22.627 9.373-6 6.003-9.373 14.141-9.373 22.627s3.373 16.627 9.373 22.627c6 6.003 14.141 9.373 22.627 9.373h128c8.486 0 16.627-3.37 22.627-9.373 6-6 9.373-14.141 9.373-22.627zM640 581.878v42.118c0.022 32.357-10.854 63.777-30.877 89.196-20.019 25.419-48.016 43.354-79.478 50.914-31.459 7.56-64.55 4.305-93.933-9.242s-53.35-36.594-68.032-65.427c-3.862-7.559-10.566-13.274-18.643-15.888-8.074-2.614-16.858-1.914-24.416 1.948s-13.275 10.568-15.889 18.643c-2.614 8.075-1.914 16.858 1.948 24.417 21.218 41.634 55.838 74.909 98.277 94.464 42.442 19.555 90.23 24.249 135.664 13.325s85.866-36.827 114.781-73.536c28.912-36.709 44.624-82.085 44.598-128.814v-368c0-8.486-3.373-16.624-9.373-22.627-6-6-14.141-9.373-22.627-9.373s-16.627 3.373-22.627 9.373c-6 6.003-9.373 14.141-9.373 22.627v26.122c-29.398-28.288-66.467-47.306-106.592-54.688-40.122-7.382-81.533-2.8-119.072 13.174-37.542 15.974-69.555 42.637-92.058 76.666-22.502 34.032-34.5 73.93-34.5 114.726 0 40.8 11.998 80.694 34.5 114.726s54.515 60.691 92.058 76.666c37.539 15.974 78.95 20.557 119.072 13.178 40.125-7.382 77.194-26.4 106.592-54.688zM640 431.997c0 28.48-8.445 56.323-24.269 80.003s-38.314 42.138-64.624 53.037c-26.314 10.899-55.267 13.75-83.2 8.195-27.933-5.558-53.59-19.274-73.731-39.411-20.138-20.138-33.853-45.798-39.408-73.731-5.558-27.933-2.707-56.886 8.192-83.2 10.899-26.31 29.357-48.8 53.037-64.624 23.683-15.824 51.523-24.269 80.003-24.269 18.909 0 37.635 3.725 55.107 10.963 17.469 7.235 33.344 17.843 46.717 31.213 13.37 13.373 23.978 29.248 31.216 46.717 7.235 17.472 10.96 36.198 10.96 55.107z" />
<glyph unicode="&#xe917;" glyph-name="Anchor" d="M864 415.997c-8.486 0-16.627-3.37-22.627-9.373-6-6-9.373-14.138-9.373-22.627 0-21.011-4.138-41.814-12.179-61.229-8.042-19.411-19.827-37.050-34.685-51.907s-32.496-26.643-51.907-34.685c-19.411-8.038-40.218-12.179-61.229-12.179-47.267 0.029-92.867-17.456-128-49.078v273.078h128c8.486 0 16.627 3.373 22.627 9.373 6 6.003 9.373 14.141 9.373 22.627 0 8.49-3.373 16.627-9.373 22.627-6 6.003-14.141 9.373-22.627 9.373h-128v100c30.166 7.789 56.454 26.314 73.939 52.098s24.966 57.062 21.040 87.968c-3.926 30.906-18.989 59.319-42.365 79.914s-53.459 31.957-84.614 31.957c-31.155 0-61.238-11.362-84.614-31.957s-38.438-49.008-42.365-79.914c-3.926-30.906 3.555-62.183 21.040-87.968s43.773-44.309 73.939-52.098v-100h-128c-8.486 0-16.627-3.37-22.627-9.373-6-6-9.373-14.138-9.373-22.627 0-8.486 3.373-16.624 9.373-22.627 6-6 14.141-9.373 22.627-9.373h128v-273.078c-35.133 31.622-80.733 49.107-128 49.078-42.435 0-83.131 16.858-113.137 46.864s-46.863 70.704-46.863 113.136c0 8.49-3.372 16.627-9.372 22.627-6.001 6.003-14.14 9.373-22.628 9.373s-16.626-3.37-22.628-9.373c-6.001-6-9.372-14.138-9.372-22.627 0.064-59.389 23.684-116.326 65.678-158.32s98.932-65.616 158.322-65.68c33.949 0 66.506-13.485 90.509-37.488 24.006-24.006 37.491-56.563 37.491-90.512 0-8.486 3.373-16.624 9.373-22.627 6-6 14.141-9.373 22.627-9.373s16.627 3.373 22.627 9.373c6 6.003 9.373 14.141 9.373 22.627 0 33.949 13.485 66.506 37.491 90.512 24.003 24.003 56.56 37.488 90.509 37.488 59.389 0.064 116.326 23.686 158.323 65.68 41.994 41.994 65.613 98.931 65.677 158.32 0 8.49-3.373 16.627-9.373 22.627-6 6.003-14.141 9.373-22.627 9.373zM448 735.998c0 12.658 3.754 25.032 10.787 35.556 7.030 10.525 17.027 18.728 28.72 23.572 11.696 4.844 24.563 6.111 36.979 3.642 12.413-2.469 23.818-8.565 32.768-17.515s15.046-20.355 17.517-32.769c2.467-12.415 1.2-25.283-3.642-36.978-4.845-11.694-13.050-21.69-23.574-28.722s-22.896-10.786-35.555-10.786c-16.973 0-33.251 6.743-45.254 18.745s-18.746 28.281-18.746 45.255z" />
<glyph unicode="&#xe918;" glyph-name="AnchorSimple" d="M896 511.997h-96c-8.486 0-16.627-3.37-22.627-9.373-6-6-9.373-14.138-9.373-22.627 0-8.486 3.373-16.624 9.373-22.627 6-6 14.141-9.373 22.627-9.373h62.56c-7.6-81.914-43.606-158.595-101.782-216.765s-134.861-94.163-216.778-101.754v450.518c30.166 7.789 56.454 26.314 73.939 52.096 17.485 25.787 24.966 57.063 21.040 87.969s-18.989 59.319-42.365 79.914c-23.376 20.595-53.459 31.957-84.614 31.957s-61.238-11.362-84.614-31.957c-23.376-20.595-38.438-49.008-42.365-79.914s3.555-62.183 21.040-87.969c17.485-25.782 43.773-44.307 73.939-52.096v-450.518c-81.917 7.59-158.602 43.584-216.778 101.754s-94.181 134.851-101.782 216.765h62.56c8.487 0 16.626 3.373 22.628 9.373 6.001 6.003 9.372 14.141 9.372 22.627 0 8.49-3.372 16.627-9.372 22.627-6.001 6.003-14.14 9.373-22.628 9.373h-96c-8.487 0-16.626-3.37-22.628-9.373-6.001-6-9.372-14.138-9.372-22.627 0-110.33 43.828-216.141 121.844-294.154 78.015-78.016 183.827-121.846 294.156-121.846s216.141 43.83 294.157 121.846c78.016 78.013 121.843 183.824 121.843 294.154 0 8.49-3.373 16.627-9.373 22.627-6 6.003-14.141 9.373-22.627 9.373zM448 703.998c0 12.658 3.754 25.032 10.787 35.556 7.030 10.525 17.027 18.728 28.72 23.572 11.696 4.844 24.563 6.111 36.979 3.642 12.413-2.469 23.818-8.565 32.768-17.515s15.046-20.355 17.517-32.769c2.467-12.415 1.2-25.283-3.642-36.978-4.845-11.694-13.050-21.69-23.574-28.722s-22.896-10.787-35.555-10.787c-16.973 0-33.251 6.744-45.254 18.747s-18.746 28.281-18.746 45.255z" />
<glyph unicode="&#xe919;" glyph-name="AndroidLogo" d="M704 336.003c0-9.494-2.816-18.774-8.090-26.669-5.274-7.891-12.771-14.045-21.542-17.677-8.771-3.635-18.422-4.586-27.731-2.733-9.312 1.853-17.866 6.426-24.579 13.136-6.71 6.714-11.283 15.267-13.136 24.579-1.853 9.309-0.899 18.96 2.733 27.731s9.786 16.269 17.68 21.542c7.891 5.274 17.171 8.090 26.666 8.090 12.73 0 24.941-5.056 33.942-14.061 9.002-9.002 14.058-21.21 14.058-33.939zM368 384.003c-9.494 0-18.774-2.816-26.666-8.090-7.894-5.274-14.048-12.771-17.68-21.542s-4.584-18.422-2.733-27.731c1.853-9.312 6.426-17.866 13.136-24.579 6.714-6.71 15.267-11.283 24.579-13.136 9.309-1.853 18.96-0.902 27.731 2.733 8.771 3.632 16.269 9.786 21.542 17.677 5.274 7.894 8.090 17.174 8.090 26.669 0 12.73-5.056 24.938-14.058 33.939-9.002 9.005-21.213 14.061-33.942 14.061zM960 288.003v-96c0-16.973-6.742-33.254-18.746-45.254-12.003-12.003-28.282-18.746-45.254-18.746h-768c-16.974 0-33.252 6.742-45.255 18.746-12.002 12-18.745 28.282-18.745 45.254v91.478c-0.057 61.69 12.471 122.739 36.818 179.418 24.347 56.682 60.001 107.795 104.782 150.224l-100.24 100.24c-6.004 6.004-9.378 14.148-9.378 22.64s3.373 16.636 9.378 22.64c6.004 6.004 14.148 9.378 22.64 9.378s16.636-3.373 22.64-9.378l104.64-104.64c75.132 53.221 164.905 81.868 256.979 82.004s181.93-28.245 257.222-81.244l104 104c6.003 6.004 14.147 9.378 22.64 9.378 8.49 0 16.634-3.373 22.64-9.378 6.003-6.004 9.376-14.148 9.376-22.64s-3.373-16.636-9.376-22.64l-99.482-99.48c3.002-2.842 6-5.722 8.96-8.682 41.898-41.52 75.12-90.954 97.741-145.43 22.621-54.474 34.182-112.902 34.019-171.888zM896 288.003c0 101.843-40.458 199.514-112.47 271.53-72.016 72.013-169.686 112.47-271.53 112.47h-1.36c-211-0.72-382.64-175.001-382.64-388.521v-91.478h768v96z" />
<glyph unicode="&#xe91a;" glyph-name="AngularLogo" d="M908.32 701.517l-384 160c-3.901 1.644-8.090 2.49-12.32 2.49s-8.419-0.847-12.32-2.49l-384-160c-6.497-2.71-11.918-7.486-15.426-13.59s-4.904-13.193-3.974-20.17l64-480.001c0.688-5.178 2.634-10.109 5.667-14.362s7.061-7.699 11.733-10.038l320-160c4.445-2.224 9.347-3.382 14.32-3.382s9.875 1.158 14.32 3.382l320 160c4.672 2.339 8.701 5.786 11.731 10.038 3.034 4.253 4.979 9.184 5.667 14.362l64 480.001c0.931 6.978-0.467 14.067-3.974 20.17s-8.928 10.88-15.424 13.59zM802.518 213.037l-290.518-145.28-290.52 145.28-58.52 438.961 349.040 145.32 349.040-145.32-58.522-438.961zM484 623.517l-160-288c-2.038-3.677-3.331-7.718-3.808-11.894-0.476-4.179-0.125-8.41 1.034-12.451 1.158-4.038 3.104-7.814 5.722-11.104s5.856-6.032 9.533-8.070c3.677-2.038 7.718-3.331 11.898-3.808 4.176-0.474 8.406-0.125 12.448 1.037 4.042 1.158 7.814 3.101 11.104 5.718s6.032 5.856 8.070 9.533l44 79.52h176l44-79.52c2.038-3.677 4.781-6.915 8.070-9.533s7.062-4.56 11.104-5.718c4.042-1.162 8.272-1.51 12.448-1.037 4.179 0.477 8.221 1.77 11.898 3.808s6.915 4.781 9.533 8.070c2.618 3.29 4.56 7.066 5.722 11.104 1.158 4.042 1.51 8.272 1.034 12.451-0.477 4.176-1.77 8.218-3.808 11.894l-160 288c-2.768 5.002-6.822 9.171-11.747 12.074-4.925 2.906-10.538 4.435-16.253 4.435s-11.328-1.53-16.253-4.435c-4.925-2.902-8.979-7.072-11.747-12.074zM564.278 447.997h-104.56l52.282 94.122 52.278-94.122z" />
<glyph unicode="&#xe91b;" glyph-name="Aperture" d="M806.157 742.161c-78.016 78.016-183.827 121.845-294.16 121.845-110.33 0-216.143-43.829-294.16-121.845s-121.845-183.828-121.845-294.161c0-110.33 43.829-216.144 121.845-294.16s183.83-121.843 294.16-121.843c110.333 0 216.144 43.827 294.16 121.843s121.846 183.83 121.846 294.16c0 110.333-43.83 216.145-121.846 294.161zM760.918 696.881c16.406-16.479 31.146-34.54 44-53.92l-134.72-158.961-111.68 312.881c76.672-10.016 147.859-45.186 202.4-100zM622.358 428l-72.64-85.478-110.362 20-37.718 105.478 72.64 85.482 110.358-20 37.722-105.482zM263.077 696.881c60.433 60.763 141.096 97.193 226.641 102.36l70.038-195.999-326.56 59.479c9.215 12.018 19.196 23.428 29.88 34.16zM186.597 313.84c-18.989 46.371-27.907 96.25-26.162 146.33 1.745 50.077 14.112 99.213 36.282 144.15l204.841-37.398-214.961-253.082zM263.077 199.12c-16.408 16.48-31.147 34.541-44 53.92l134.721 158.96 111.68-312.72c-76.656 9.971-147.838 45.085-202.401 99.84zM760.918 199.12c-60.435-60.762-141.098-97.194-226.64-102.358l-70.042 196 326.56-59.642c-9.219-11.962-19.2-23.318-29.878-34zM622.438 329.082l214.96 253.078c18.989-46.371 27.907-96.25 26.16-146.326-1.744-50.080-14.112-99.216-36.282-144.154l-204.838 37.402z" />
<glyph unicode="&#xe91c;" glyph-name="AppleLogo" d="M893.2 281.638c-2.4 5.485-6.278 10.195-11.2 13.6-67.878 46.64-82 126.202-82 184.762 0 70.678 53.882 132.24 86 162.68 3.158 2.99 5.677 6.594 7.395 10.589 1.722 3.996 2.608 8.3 2.608 12.651s-0.886 8.655-2.608 12.651c-1.718 3.996-4.237 7.599-7.395 10.589-50.72 47.88-134.72 78.84-214 78.84-56.95-0.044-112.618-16.925-160-48.52-55.274 37.066-121.738 53.712-187.958 47.076s-128.060-36.139-174.882-83.436c-27.99-28.576-49.953-62.486-64.582-99.715s-21.627-77.018-20.578-117.005c1.584-67.491 16.597-133.99 44.165-195.616s67.136-117.139 116.395-163.306c29.672-28.032 68.979-43.597 109.802-43.478h350.72c21.821-0.042 43.421 4.4 63.459 13.050 20.035 8.65 38.080 21.322 53.021 37.229 27.67 29.782 51.606 62.826 71.28 98.4 28.080 51.322 24.48 59.322 20.358 68.96zM754.682 157.878c-8.934-9.485-19.722-17.030-31.696-22.173-11.974-5.139-24.877-7.763-37.904-7.706h-350.72c-24.451-0.080-47.994 9.245-65.762 26.038-43.117 40.368-77.758 88.925-101.899 142.832-24.14 53.904-37.297 112.080-38.701 171.13-0.875 31.373 4.571 62.602 16.012 91.827s28.646 55.853 50.588 78.291c20.501 20.946 44.993 37.567 72.028 48.883s56.063 17.096 85.372 16.999h3.12c49.85-0.525 98.070-17.829 136.88-49.12 5.677-4.544 12.73-7.020 20-7.020s14.323 2.476 20 7.020c39.642 31.962 89.078 49.306 140 49.12 50.851-0.59 100.602-14.893 144-41.4-52-58.082-80-121.88-80-182.6 0-95.082 30.56-170.922 88.72-221.2-18.314-36.867-41.91-70.864-70.038-100.922zM512.922 840c8.874 34.372 28.928 64.816 57.002 86.54 28.077 21.725 62.579 33.495 98.077 33.46h4c8.486 0 16.627-3.371 22.627-9.373s9.373-14.14 9.373-22.627c0-8.487-3.373-16.626-9.373-22.628s-14.141-9.372-22.627-9.372h-4c-21.283 0.002-41.965-7.070-58.794-20.103-16.826-13.033-28.845-31.289-34.166-51.897-2.122-8.222-7.424-15.264-14.736-19.577-7.315-4.313-16.042-5.545-24.262-3.423-8.224 2.122-15.264 7.422-19.578 14.736s-5.546 16.042-3.424 24.264h-0.118z" />
<glyph unicode="&#xe91d;" glyph-name="ApplePodcastsLogo" d="M616.8 406.682c13.45 19.178 21.376 41.677 22.922 65.050s-3.354 46.723-14.163 67.504c-10.81 20.781-27.114 38.198-47.136 50.352-20.022 12.157-42.998 18.586-66.422 18.586s-46.4-6.429-66.422-18.586c-20.022-12.154-36.326-29.571-47.136-50.352s-15.709-44.131-14.163-67.504c1.546-23.373 9.472-45.872 22.922-65.050-13.706-6.47-25.706-16.061-35.040-28-8.957-11.43-15.168-24.765-18.15-38.976-2.982-14.214-2.656-28.918 0.95-42.986l48.72-192c5.344-20.867 17.501-39.354 34.544-52.525 17.043-13.174 37.997-20.282 59.536-20.195h28.48c21.523-0.093 42.464 6.998 59.504 20.147s29.21 31.61 34.576 52.451l48.72 192c3.606 14.067 3.933 28.774 0.95 42.986s-9.194 27.546-18.15 38.976c-9.322 11.984-21.322 21.616-35.040 28.122zM512 544c12.659 0 25.030-3.754 35.555-10.787 10.525-7.030 18.73-17.027 23.574-28.72 4.842-11.696 6.109-24.563 3.642-36.979-2.47-12.413-8.566-23.818-17.517-32.768s-20.355-15.046-32.768-17.517c-12.416-2.467-25.283-1.2-36.979 3.642-11.693 4.845-21.69 13.050-28.72 23.574-7.034 10.525-10.787 22.896-10.787 35.555 0 16.973 6.742 33.251 18.746 45.254s28.282 18.746 45.254 18.746zM607.002 312.358l-48.72-192c-1.862-7.043-6.019-13.264-11.818-17.674-5.795-4.413-12.899-6.765-20.182-6.685h-28.48c-7.286-0.080-14.39 2.272-20.186 6.685-5.798 4.41-9.955 10.63-11.814 17.674l-48.72 192c-1.203 4.621-1.315 9.459-0.33 14.131 0.986 4.669 3.043 9.050 6.010 12.79 3.117 3.997 7.11 7.222 11.674 9.43 4.566 2.205 9.574 3.331 14.646 3.29h126c5.069 0.042 10.077-1.085 14.643-3.29 4.563-2.208 8.557-5.434 11.677-9.43 2.95-3.747 4.992-8.131 5.965-12.8 0.973-4.672 0.845-9.504-0.365-14.122zM288 448c-0.012-18.89 2.353-37.702 7.040-56 1.124-4.093 1.422-8.368 0.878-12.576s-1.919-8.266-4.046-11.939c-2.127-3.67-4.963-6.883-8.343-9.45-3.38-2.563-7.237-4.432-11.346-5.491-4.109-1.062-8.388-1.296-12.587-0.688s-8.236 2.045-11.875 4.23c-3.639 2.182-6.807 5.066-9.321 8.486-2.514 3.418-4.322 7.302-5.32 11.427-10.944 42.547-12.010 87.034-3.116 130.054 8.894 43.024 27.513 83.44 54.432 118.16 26.918 34.718 61.421 62.819 100.871 82.15 39.453 19.332 82.8 29.382 126.733 29.382s87.28-10.050 126.733-29.382c39.45-19.332 73.952-47.432 100.87-82.15 26.918-34.72 45.539-75.136 54.432-118.16 8.896-43.021 7.83-87.507-3.114-130.054-1.773-6.864-5.776-12.947-11.379-17.29-5.603-4.346-12.493-6.704-19.581-6.71-2.701 0-5.386 0.336-8 1.002-8.218 2.118-15.254 7.411-19.568 14.717s-5.549 16.026-3.434 24.243c7.904 30.774 9.168 62.877 3.712 94.179-5.456 31.299-17.507 61.082-35.357 87.37-17.85 26.285-41.085 48.474-68.166 65.091-27.082 16.616-57.389 27.281-88.909 31.287s-63.53 1.26-93.907-8.055c-30.378-9.315-58.426-24.986-82.282-45.972s-42.976-46.806-56.088-75.747c-13.112-28.941-19.917-60.342-19.963-92.115zM928 448c0.054-68.646-16.902-136.234-49.354-196.723-32.448-60.493-79.386-112-136.605-149.917-7.069-4.525-15.629-6.093-23.84-4.368-8.208 1.728-15.414 6.608-20.061 13.594s-6.365 15.517-4.781 23.757c1.581 8.24 6.336 15.53 13.242 20.298 63.002 41.805 110.87 102.79 136.515 173.92 25.645 71.133 27.702 148.63 5.869 221.024-21.834 72.39-66.397 135.829-127.091 180.92-60.698 45.092-134.301 69.439-209.914 69.439s-149.216-24.348-209.914-69.439c-60.697-45.091-105.26-108.53-127.093-180.92-21.833-72.394-19.775-149.891 5.87-221.024 25.644-71.13 73.512-132.115 136.517-173.92 5.718-3.805 10.061-9.35 12.384-15.814s2.506-13.507 0.518-20.083c-1.987-6.576-6.035-12.336-11.552-16.432-5.515-4.096-12.201-6.307-19.071-6.31-6.295-0.010-12.45 1.856-17.68 5.36-59.926 39.773-108.516 94.4-141.029 158.557-32.513 64.154-47.837 135.642-44.477 207.488 3.36 71.843 25.29 141.59 63.648 202.429 38.359 60.84 91.836 110.696 155.212 144.701s134.487 50.998 206.391 49.32c71.901-1.678 142.141-21.969 203.862-58.893s112.816-89.22 148.294-151.783c35.478-62.564 54.131-133.256 54.138-205.179z" />
<glyph unicode="&#xe91e;" glyph-name="AppStoreLogo" d="M257.36 175.722l-37.8-64c-2.138-3.619-4.968-6.781-8.328-9.306-3.36-2.528-7.185-4.365-11.256-5.414-8.222-2.115-16.947-0.877-24.256 3.44-7.309 4.32-12.604 11.363-14.72 19.584-2.115 8.224-0.878 16.947 3.44 24.256l37.84 64c2.087 3.718 4.895 6.979 8.26 9.597s7.218 4.534 11.334 5.642c4.116 1.107 8.412 1.379 12.636 0.803s8.289-1.99 11.958-4.16c3.669-2.17 6.868-5.050 9.409-8.47 2.541-3.424 4.372-7.318 5.387-11.459 1.015-4.138 1.192-8.438 0.522-12.65-0.67-4.208-2.175-8.24-4.425-11.862zM928 352.003h-191.2l-122.918 208c-2.090 3.715-4.896 6.979-8.262 9.594-3.363 2.618-7.216 4.538-11.334 5.642-4.115 1.107-8.41 1.382-12.634 0.806s-8.288-1.99-11.958-4.16c-3.67-2.17-6.867-5.050-9.408-8.474-2.541-3.421-4.374-7.315-5.389-11.456s-1.19-8.442-0.522-12.65c0.672-4.211 2.176-8.243 4.426-11.862l245.642-415.722c4.317-7.309 11.36-12.602 19.581-14.72 8.224-2.115 16.947-0.877 24.259 3.44 7.309 4.32 12.602 11.363 14.717 19.584 2.115 8.224 0.88 16.947-3.44 24.256l-84.918 143.722h153.36c8.486 0 16.627 3.37 22.627 9.373 6 6 9.373 14.141 9.373 22.627s-3.373 16.627-9.373 22.627c-6 6-14.141 9.373-22.627 9.373zM569.882 352.003h-208.362l274.038 463.719c4.32 7.309 5.555 16.035 3.44 24.256s-7.408 15.266-14.717 19.584c-7.312 4.318-16.035 5.555-24.259 3.44-8.221-2.116-15.264-7.41-19.581-14.72l-68.442-115.84-68.442 116c-2.138 3.619-4.966 6.782-8.326 9.308s-7.184 4.364-11.254 5.412c-8.224 2.115-16.947 0.878-24.256-3.44-7.312-4.318-12.605-11.362-14.72-19.584s-0.88-16.947 3.44-24.256l86.397-146.2-187.638-317.679h-191.2c-8.487 0-16.626-3.373-22.628-9.373s-9.372-14.141-9.372-22.627c0-8.486 3.372-16.627 9.372-22.627 6.001-6.003 14.14-9.373 22.628-9.373h473.882c8.486 0 16.624 3.37 22.627 9.373 6 6 9.373 14.141 9.373 22.627s-3.373 16.627-9.373 22.627c-6.003 6-14.141 9.373-22.627 9.373z" />
<glyph unicode="&#xe91f;" glyph-name="AppWindow" d="M864 800h-704c-16.974 0-33.252-6.743-45.255-18.745s-18.745-28.281-18.745-45.255v-576c0-16.973 6.743-33.251 18.745-45.254s28.281-18.746 45.255-18.746h704c16.973 0 33.251 6.742 45.254 18.746s18.746 28.282 18.746 45.254v576c0 16.974-6.742 33.252-18.746 45.255s-28.282 18.745-45.254 18.745zM864 160h-704v576h704v-576zM320 624c0-9.494-2.815-18.774-8.090-26.669-5.274-7.891-12.771-14.045-21.541-17.677-8.771-3.635-18.422-4.586-27.733-2.733s-17.864 6.426-24.577 13.136c-6.713 6.714-11.284 15.267-13.137 24.579-1.852 9.309-0.901 18.96 2.732 27.732s9.785 16.267 17.679 21.541 17.174 8.090 26.668 8.090c12.73 0 24.94-5.057 33.941-14.059s14.059-21.212 14.059-33.941zM480 624c0-9.494-2.816-18.774-8.090-26.669-5.274-7.891-12.771-14.045-21.542-17.677-8.771-3.635-18.422-4.586-27.731-2.733-9.312 1.853-17.866 6.426-24.579 13.136-6.71 6.714-11.283 15.267-13.136 24.579-1.853 9.309-0.902 18.96 2.733 27.732 3.632 8.771 9.786 16.267 17.677 21.541 7.894 5.275 17.174 8.090 26.669 8.090 12.73 0 24.941-5.057 33.942-14.059s14.058-21.212 14.058-33.941z" />
<glyph unicode="&#xe920;" glyph-name="Archive" d="M896 768h-768c-16.974 0-33.252-6.743-45.255-18.745s-18.745-28.281-18.745-45.255v-96c0-16.973 6.743-33.251 18.745-45.254s28.281-18.746 45.255-18.746v-352c0-16.973 6.743-33.251 18.745-45.254s28.281-18.746 45.255-18.746h640c16.973 0 33.251 6.742 45.254 18.746s18.746 28.282 18.746 45.254v352c16.973 0 33.251 6.742 45.254 18.746s18.746 28.282 18.746 45.254v96c0 16.974-6.742 33.252-18.746 45.255s-28.282 18.745-45.254 18.745zM832 192h-640v352h640v-352zM896 608h-768v96h768v-96zM384 416c0 8.486 3.373 16.627 9.373 22.627s14.141 9.373 22.627 9.373h192c8.486 0 16.627-3.373 22.627-9.373s9.373-14.141 9.373-22.627c0-8.486-3.373-16.627-9.373-22.627s-14.141-9.373-22.627-9.373h-192c-8.486 0-16.627 3.373-22.627 9.373s-9.373 14.141-9.373 22.627z" />
<glyph unicode="&#xe921;" glyph-name="ArchiveBox" d="M892.64 686.32l-64 128c-2.659 5.316-6.749 9.787-11.808 12.909s-10.886 4.775-16.832 4.771h-576c-5.945 0.004-11.773-1.648-16.832-4.771s-9.147-7.593-11.808-12.909l-64-128c-2.206-4.452-3.356-9.352-3.36-14.32v-544c0-16.973 6.743-33.251 18.745-45.254s28.281-18.746 45.255-18.746h640c16.973 0 33.251 6.742 45.254 18.746s18.746 28.282 18.746 45.254v544c-0.003 4.968-1.155 9.868-3.36 14.32zM243.76 768h536.48l32-64h-600.48l32 64zM832 128h-640v512h640v-512zM662.64 374.64c2.976-2.973 5.334-6.502 6.947-10.387 1.61-3.885 2.438-8.048 2.438-12.253s-0.829-8.368-2.438-12.253c-1.613-3.885-3.971-7.414-6.947-10.387l-128-128c-2.973-2.976-6.502-5.334-10.387-6.947-3.885-1.61-8.048-2.438-12.253-2.438s-8.368 0.829-12.253 2.438c-3.885 1.613-7.414 3.971-10.387 6.947l-128 128c-6.003 6.003-9.379 14.147-9.379 22.64s3.376 16.637 9.379 22.64c6.003 6.003 14.147 9.379 22.64 9.379s16.637-3.376 22.64-9.379l73.36-73.402v242.762c0 8.486 3.373 16.627 9.373 22.627s14.141 9.373 22.627 9.373c8.486 0 16.627-3.373 22.627-9.373s9.373-14.141 9.373-22.627v-242.762l73.36 73.402c2.973 2.976 6.502 5.334 10.387 6.947 3.885 1.61 8.048 2.438 12.253 2.438s8.368-0.829 12.253-2.438c3.885-1.613 7.414-3.971 10.387-6.947z" />
<glyph unicode="&#xe922;" glyph-name="ArchiveTray" d="M832 832h-640c-16.974 0-33.252-6.743-45.255-18.745s-18.745-28.281-18.745-45.255v-640c0-16.973 6.743-33.251 18.745-45.254s28.281-18.746 45.255-18.746h640c16.973 0 33.251 6.742 45.254 18.746s18.746 28.282 18.746 45.254v640c0 16.974-6.742 33.252-18.746 45.255s-28.282 18.745-45.254 18.745zM832 768v-416h-114.8c-8.4 0.022-16.723-1.626-24.483-4.845-7.757-3.222-14.8-7.952-20.717-13.917l-77.238-77.238h-165.523l-77.238 77.238c-5.92 5.971-12.97 10.704-20.736 13.923s-16.096 4.864-24.504 4.838h-114.76v416h640zM832 128h-640v160h114.76l77.24-77.238c5.92-5.971 12.97-10.704 20.736-13.923s16.096-4.864 24.502-4.838h165.523c8.406-0.026 16.736 1.619 24.502 4.838s14.816 7.952 20.736 13.923l77.238 77.238h114.762v-160zM361.36 457.36c-6.003 6.003-9.379 14.147-9.379 22.64s3.376 16.637 9.379 22.64c6.003 6.003 14.147 9.379 22.64 9.379s16.637-3.376 22.64-9.379l73.36-73.402v242.762c0 8.487 3.373 16.626 9.373 22.628s14.141 9.372 22.627 9.372c8.486 0 16.627-3.372 22.627-9.372s9.373-14.14 9.373-22.628v-242.762l73.36 73.402c2.973 2.973 6.502 5.331 10.387 6.941s8.048 2.438 12.253 2.438c4.205 0 8.368-0.829 12.253-2.438s7.414-3.968 10.387-6.941c2.973-2.973 5.331-6.502 6.941-10.387s2.438-8.048 2.438-12.253c0-4.205-0.829-8.368-2.438-12.253s-3.968-7.414-6.941-10.387l-128-128c-2.973-2.976-6.502-5.334-10.387-6.947-3.885-1.61-8.048-2.438-12.253-2.438s-8.368 0.829-12.253 2.438c-3.885 1.613-7.414 3.971-10.387 6.947l-128 128z" />
<glyph unicode="&#xe923;" glyph-name="Armchair" d="M864 604.8v67.2c0 42.435-16.858 83.131-46.864 113.137-30.003 30.006-70.701 46.863-113.136 46.863h-384c-42.435 0-83.131-16.857-113.137-46.863s-46.863-70.702-46.863-113.137v-67.2c-36.169-7.344-68.687-26.966-92.044-55.542-23.357-28.579-36.116-64.349-36.116-101.258s12.759-72.678 36.116-101.258c23.357-28.576 55.875-48.198 92.044-55.542v-131.2c0-16.973 6.743-33.251 18.745-45.254s28.281-18.746 45.255-18.746h576c16.973 0 33.251 6.742 45.254 18.746s18.746 28.282 18.746 45.254v131.2c36.17 7.344 68.688 26.966 92.045 55.542 23.357 28.579 36.115 64.349 36.115 101.258s-12.758 72.678-36.115 101.258c-23.357 28.576-55.875 48.198-92.045 55.542zM320 768h384c25.459 0 49.878-10.114 67.882-28.118s28.118-42.421 28.118-67.882v-67.2c-36.115-7.427-68.566-27.075-91.882-55.638-23.318-28.563-36.074-64.291-36.118-101.162h-320c-0.045 36.87-12.8 72.598-36.117 101.162s-55.767 48.211-91.883 55.638v67.2c0 25.461 10.114 49.879 28.118 67.882s42.421 28.118 67.882 28.118zM833.558 352h-1.558c-8.486 0-16.627-3.373-22.627-9.373s-9.373-14.141-9.373-22.627v-160h-576v160c0 8.486-3.372 16.627-9.372 22.627s-14.14 9.373-22.628 9.373h-1.56c-18.917 0.307-37.323 6.198-52.903 16.931s-27.642 25.834-34.669 43.398c-7.027 17.568-8.707 36.819-4.829 55.338s13.142 35.478 26.628 48.749c13.486 13.267 30.592 22.259 49.171 25.837 18.578 3.581 37.8 1.59 55.251-5.718 17.451-7.312 32.353-19.613 42.834-35.366 10.481-15.75 16.074-34.246 16.077-53.168v-160c0-8.486 3.372-16.627 9.372-22.627s14.14-9.373 22.628-9.373c8.486 0 16.627 3.373 22.627 9.373s9.373 14.141 9.373 22.627v96h320v-96c0-8.486 3.373-16.627 9.373-22.627s14.141-9.373 22.627-9.373c8.486 0 16.627 3.373 22.627 9.373s9.373 14.141 9.373 22.627v160c0.003 18.922 5.597 37.418 16.077 53.168 10.48 15.754 25.382 28.054 42.835 35.366 17.45 7.309 36.672 9.299 55.251 5.718 18.576-3.578 35.683-12.57 49.171-25.837 13.485-13.27 22.749-30.23 26.627-48.749s2.198-37.77-4.829-55.338c-7.027-17.565-19.088-32.666-34.669-43.398s-33.987-16.624-52.906-16.931z" />
<glyph unicode="&#xe924;" glyph-name="ArrowArcLeft" d="M928 224c0-8.486-3.373-16.627-9.373-22.627s-14.141-9.373-22.627-9.373c-8.486 0-16.627 3.373-22.627 9.373s-9.373 14.141-9.373 22.627c-0.010 69.613-20.656 137.661-59.338 195.539-38.678 57.878-93.648 102.989-157.965 129.626-64.314 26.64-135.082 33.61-203.357 20.032s-130.993-47.098-180.221-96.317l-89.52-88.88h178.4c8.486 0 16.627-3.37 22.627-9.373 6-6 9.373-14.141 9.373-22.627s-3.373-16.627-9.373-22.627c-6-6-14.141-9.373-22.627-9.373h-256c-8.487 0-16.626 3.373-22.628 9.373s-9.372 14.141-9.372 22.627v256c0 8.486 3.372 16.627 9.372 22.627 6.001 6.003 14.14 9.373 22.628 9.373s16.626-3.37 22.628-9.373c6.001-6 9.372-14.141 9.372-22.627v-179.078l89.92 89.318c58.188 58.157 132.314 97.757 213.005 113.792 80.691 16.032 164.323 7.779 240.323-23.712 76.003-31.494 140.96-84.816 186.662-153.222 45.699-68.406 70.090-148.829 70.090-231.098z" />
<glyph unicode="&#xe925;" glyph-name="ArrowArcRight" d="M960 608v-256c0-8.486-3.373-16.627-9.373-22.627s-14.141-9.373-22.627-9.373h-256c-8.486 0-16.627 3.373-22.627 9.373s-9.373 14.141-9.373 22.627c0 8.486 3.373 16.627 9.373 22.627 6 6.003 14.141 9.373 22.627 9.373h178.4l-89.44 88.842c-49.222 49.245-111.942 82.784-180.227 96.381-68.285 13.594-139.069 6.634-203.398-20.003-64.328-26.637-119.313-71.754-157.999-129.642-38.686-57.891-59.335-125.952-59.335-195.578 0-8.486-3.372-16.627-9.372-22.627s-14.14-9.373-22.628-9.373c-8.487 0-16.626 3.373-22.628 9.373s-9.372 14.141-9.372 22.627c-0.001 82.278 24.396 162.71 70.106 231.12 45.711 68.413 110.682 121.734 186.697 153.222 76.016 31.485 159.661 39.724 240.355 23.67 80.698-16.051 154.822-55.674 213.002-113.853l89.84-89.238v179.078c0 8.486 3.373 16.627 9.373 22.627 6 6.003 14.141 9.373 22.627 9.373s16.627-3.37 22.627-9.373c6-6 9.373-14.141 9.373-22.627z" />
<glyph unicode="&#xe926;" glyph-name="ArrowBendDoubleUpLeft" d="M342.64 374.64c6.003-6.003 9.376-14.147 9.376-22.64s-3.373-16.637-9.376-22.64c-6.003-6.003-14.147-9.379-22.64-9.379s-16.636 3.376-22.64 9.379l-192 192c-2.975 2.973-5.335 6.502-6.946 10.387s-2.439 8.048-2.439 12.253c0 4.205 0.829 8.368 2.439 12.253s3.971 7.414 6.946 10.387l192 192c6.004 6.004 14.148 9.378 22.64 9.378 8.493 0 16.637-3.373 22.64-9.378s9.376-14.148 9.376-22.64c0-8.492-3.373-16.636-9.376-22.64l-169.4-169.36 169.4-169.36zM512 576h-114.762l137.402 137.36c6.003 6.004 9.379 14.148 9.379 22.64s-3.376 16.636-9.379 22.64c-6.003 6.004-14.147 9.378-22.64 9.378s-16.637-3.373-22.64-9.378l-192-192c-2.975-2.973-5.335-6.502-6.946-10.387s-2.439-8.048-2.439-12.253c0-4.205 0.829-8.368 2.439-12.253s3.971-7.414 6.946-10.387l192-192c2.973-2.973 6.502-5.331 10.387-6.941s8.048-2.438 12.253-2.438c4.205 0 8.368 0.829 12.253 2.438s7.414 3.968 10.387 6.941c2.973 2.973 5.331 6.502 6.941 10.387s2.438 8.048 2.438 12.253c0 4.205-0.829 8.368-2.438 12.253s-3.968 7.414-6.941 10.387l-137.402 137.36h114.762c93.325-0.106 182.794-37.226 248.784-103.216s103.11-155.459 103.216-248.784c0-8.486 3.37-16.627 9.373-22.627 6-6.003 14.141-9.373 22.627-9.373s16.627 3.37 22.627 9.373c6 6 9.373 14.141 9.373 22.627-0.115 110.294-43.984 216.038-121.971 294.029-77.99 77.987-183.734 121.856-294.029 121.971z" />
<glyph unicode="&#xe927;" glyph-name="ArrowBendDoubleUpRight" d="M918.64 521.36l-192-192c-6.003-6.003-14.147-9.379-22.64-9.379s-16.637 3.376-22.64 9.379c-6.003 6.003-9.379 14.147-9.379 22.64s3.376 16.637 9.379 22.64l169.402 169.36-169.402 169.36c-2.973 2.973-5.331 6.503-6.941 10.388s-2.438 8.048-2.438 12.252c0 4.205 0.829 8.368 2.438 12.253s3.968 7.414 6.941 10.387c6.003 6.004 14.147 9.378 22.64 9.378 4.205 0 8.368-0.828 12.253-2.437s7.414-3.968 10.387-6.941l192-192c2.976-2.973 5.334-6.502 6.947-10.387 1.61-3.885 2.438-8.048 2.438-12.253s-0.829-8.368-2.438-12.253c-1.613-3.885-3.971-7.414-6.947-10.387zM726.64 566.64l-192 192c-6.003 6.004-14.147 9.378-22.64 9.378s-16.637-3.373-22.64-9.378c-6.003-6.004-9.379-14.148-9.379-22.64s3.376-16.636 9.379-22.64l137.402-137.36h-114.762c-110.294-0.115-216.038-43.984-294.028-121.971-77.99-77.99-121.856-183.734-121.972-294.029 0-8.486 3.372-16.627 9.372-22.627 6.001-6.003 14.14-9.373 22.628-9.373s16.626 3.37 22.628 9.373c6.001 6 9.372 14.141 9.372 22.627 0.106 93.325 37.226 182.794 103.215 248.784 65.991 65.99 155.46 103.11 248.785 103.216h114.762l-137.402-137.36c-2.973-2.973-5.331-6.502-6.941-10.387s-2.438-8.048-2.438-12.253c0-4.205 0.829-8.368 2.438-12.253s3.968-7.414 6.941-10.387c6.003-6.003 14.147-9.379 22.64-9.379 4.205 0 8.368 0.829 12.253 2.438s7.414 3.968 10.387 6.941l192 192c2.976 2.973 5.334 6.502 6.947 10.387 1.61 3.885 2.438 8.048 2.438 12.253s-0.829 8.368-2.438 12.253c-1.613 3.885-3.971 7.414-6.947 10.387z" />
<glyph unicode="&#xe928;" glyph-name="ArrowBendDownLeft" d="M928 736c-0.115-110.294-43.984-216.038-121.971-294.029-77.99-77.99-183.734-121.856-294.029-121.971h-306.76l137.4-137.36c6.003-6.003 9.376-14.147 9.376-22.64s-3.373-16.637-9.376-22.64c-6.003-6.003-14.147-9.379-22.64-9.379s-16.636 3.376-22.64 9.379l-192 192c-2.975 2.973-5.335 6.502-6.946 10.387s-2.439 8.048-2.439 12.253c0 4.205 0.829 8.368 2.439 12.253s3.971 7.414 6.946 10.387l192 192c6.004 6.003 14.148 9.379 22.64 9.379 8.493 0 16.637-3.376 22.64-9.379s9.376-14.147 9.376-22.64c0-8.493-3.373-16.637-9.376-22.64l-137.4-137.36h306.76c93.325 0.106 182.794 37.226 248.784 103.216s103.11 155.46 103.216 248.784c0 8.487 3.37 16.626 9.373 22.628 6 6.001 14.141 9.372 22.627 9.372s16.627-3.372 22.627-9.372c6-6.001 9.373-14.14 9.373-22.628z" />
<glyph unicode="&#xe929;" glyph-name="ArrowBendDownRight" d="M918.64 329.36l-192-192c-6.003-6.003-14.147-9.379-22.64-9.379s-16.637 3.376-22.64 9.379c-6.003 6.003-9.379 14.147-9.379 22.64s3.376 16.637 9.379 22.64l137.402 137.36h-306.762c-110.294 0.115-216.038 43.981-294.028 121.971s-121.856 183.734-121.972 294.029c0 8.487 3.372 16.626 9.372 22.628s14.14 9.372 22.628 9.372c8.487 0 16.626-3.372 22.628-9.372s9.372-14.14 9.372-22.628c0.106-93.324 37.226-182.794 103.215-248.784 65.991-65.99 155.46-103.11 248.785-103.216h306.762l-137.402 137.36c-6.003 6.003-9.379 14.147-9.379 22.64s3.376 16.637 9.379 22.64c6.003 6.003 14.147 9.379 22.64 9.379s16.637-3.376 22.64-9.379l192-192c2.976-2.973 5.334-6.502 6.947-10.387 1.61-3.885 2.438-8.048 2.438-12.253s-0.829-8.368-2.438-12.253c-1.613-3.885-3.971-7.414-6.947-10.387z" />
<glyph unicode="&#xe92a;" glyph-name="ArrowBendLeftDown" d="M832 832c0-8.487-3.37-16.626-9.373-22.628-6-6.001-14.141-9.372-22.627-9.372-93.325-0.106-182.794-37.226-248.784-103.215-65.99-65.991-103.11-155.46-103.216-248.785v-306.762l137.36 137.402c6.003 6.003 14.147 9.379 22.64 9.379s16.637-3.376 22.64-9.379c6.003-6.003 9.379-14.147 9.379-22.64s-3.376-16.637-9.379-22.64l-192-192c-2.973-2.976-6.502-5.334-10.387-6.947-3.885-1.61-8.048-2.438-12.253-2.438s-8.368 0.829-12.253 2.438c-3.885 1.613-7.414 3.971-10.387 6.947l-192 192c-2.973 2.973-5.332 6.502-6.941 10.387s-2.437 8.048-2.437 12.253c0 4.205 0.828 8.368 2.437 12.253s3.968 7.414 6.941 10.387c6.004 6.003 14.148 9.379 22.64 9.379 4.204 0 8.368-0.829 12.252-2.438s7.414-3.968 10.388-6.941l137.36-137.402v306.762c0.115 110.294 43.984 216.038 121.971 294.028 77.99 77.99 183.734 121.856 294.029 121.972 8.486 0 16.627-3.372 22.627-9.372 6.003-6.001 9.373-14.14 9.373-22.628z" />
<glyph unicode="&#xe92b;" glyph-name="ArrowBendLeftUp" d="M832 64c0-8.486-3.37-16.627-9.373-22.627-6-6-14.141-9.373-22.627-9.373-110.294 0.115-216.038 43.984-294.029 121.971-77.987 77.99-121.856 183.734-121.971 294.029v306.76l-137.36-137.4c-6.004-6.003-14.148-9.376-22.64-9.376s-16.636 3.373-22.64 9.376c-6.004 6.003-9.378 14.147-9.378 22.64s3.373 16.636 9.378 22.64l192 192c2.973 2.975 6.502 5.335 10.387 6.946s8.048 2.439 12.253 2.439c4.205 0 8.368-0.829 12.253-2.439s7.414-3.971 10.387-6.946l192-192c6.003-6.004 9.379-14.148 9.379-22.64s-3.376-16.637-9.379-22.64-14.147-9.376-22.64-9.376c-8.493 0-16.637 3.373-22.64 9.376l-137.36 137.4v-306.76c0.106-93.325 37.226-182.794 103.216-248.784s155.459-103.11 248.784-103.216c8.486 0 16.627-3.37 22.627-9.373 6.003-6 9.373-14.141 9.373-22.627z" />
<glyph unicode="&#xe92c;" glyph-name="ArrowBendRightDown" d="M822.64 233.36l-192-192c-2.973-2.976-6.502-5.334-10.387-6.947-3.885-1.61-8.048-2.438-12.253-2.438s-8.368 0.829-12.253 2.438c-3.885 1.613-7.414 3.971-10.387 6.947l-192 192c-6.003 6.003-9.379 14.147-9.379 22.64s3.376 16.637 9.379 22.64c6.003 6.003 14.147 9.379 22.64 9.379s16.637-3.376 22.64-9.379l137.36-137.402v306.762c-0.106 93.325-37.226 182.794-103.216 248.785s-155.46 103.109-248.784 103.215c-8.487 0-16.626 3.372-22.628 9.372s-9.372 14.14-9.372 22.628c0 8.487 3.372 16.626 9.372 22.628s14.14 9.372 22.628 9.372c110.294-0.116 216.038-43.982 294.029-121.972s121.856-183.733 121.971-294.028v-306.762l137.36 137.402c6.003 6.003 14.147 9.379 22.64 9.379s16.637-3.376 22.64-9.379c6.003-6.003 9.379-14.147 9.379-22.64s-3.376-16.637-9.379-22.64z" />
<glyph unicode="&#xe92d;" glyph-name="ArrowBendRightUp" d="M822.64 617.357c-2.973-2.973-6.502-5.334-10.387-6.944s-8.048-2.438-12.253-2.438c-4.205 0-8.368 0.829-12.253 2.438s-7.414 3.971-10.387 6.944l-137.36 137.402v-306.762c-0.115-110.294-43.981-216.035-121.971-294.026s-183.734-121.856-294.029-121.974c-8.487 0-16.626 3.373-22.628 9.373-6.001 6.003-9.372 14.141-9.372 22.627 0 8.49 3.372 16.627 9.372 22.63 6.001 6 14.14 9.37 22.628 9.37 93.324 0.109 182.794 37.226 248.784 103.216s103.11 155.462 103.216 248.784v306.762l-137.36-137.402c-6.003-6.003-14.147-9.376-22.64-9.376s-16.637 3.373-22.64 9.376c-6.003 6.006-9.379 14.15-9.379 22.64 0 8.493 3.376 16.637 9.379 22.642l192 192c2.973 2.975 6.502 5.335 10.387 6.946s8.048 2.439 12.253 2.439c4.205 0 8.368-0.829 12.253-2.439s7.414-3.971 10.387-6.946l192-192c2.976-2.972 5.334-6.501 6.947-10.386 1.61-3.885 2.438-8.049 2.438-12.256 0-4.205-0.829-8.368-2.438-12.253-1.613-3.885-3.971-7.414-6.947-10.387z" />
<glyph unicode="&#xe92e;" glyph-name="ArrowBendUpLeft" d="M928 160.003c0-8.49-3.373-16.627-9.373-22.63-6-6-14.141-9.37-22.627-9.37s-16.627 3.37-22.627 9.37c-6.003 6.003-9.373 14.141-9.373 22.63-0.106 93.322-37.226 182.794-103.216 248.784s-155.459 103.107-248.784 103.216h-306.76l137.4-137.36c6.003-6.006 9.376-14.15 9.376-22.64 0-8.493-3.373-16.637-9.376-22.64-6.003-6.006-14.147-9.379-22.64-9.379s-16.636 3.373-22.64 9.379l-192 192c-2.975 2.97-5.335 6.499-6.946 10.384s-2.439 8.048-2.439 12.256c0 4.205 0.829 8.368 2.439 12.253s3.971 7.414 6.946 10.387l192 191.998c6.004 6.005 14.148 9.378 22.64 9.378 8.493 0 16.637-3.373 22.64-9.378s9.376-14.148 9.376-22.64c0-8.492-3.373-16.635-9.376-22.64l-137.4-137.358h306.76c110.294-0.118 216.038-43.984 294.029-121.974 77.987-77.99 121.856-183.731 121.971-294.026z" />
<glyph unicode="&#xe92f;" glyph-name="ArrowBendUpRight" d="M918.64 521.363l-192-192c-6.003-6.006-14.147-9.379-22.64-9.379s-16.637 3.373-22.64 9.379c-6.003 6.003-9.379 14.147-9.379 22.64 0 8.49 3.376 16.634 9.379 22.64l137.402 137.36h-306.762c-93.325-0.109-182.794-37.226-248.785-103.216s-103.109-155.462-103.215-248.784c0-8.49-3.372-16.627-9.372-22.63-6.001-6-14.14-9.37-22.628-9.37s-16.626 3.37-22.628 9.37c-6.001 6.003-9.372 14.141-9.372 22.63 0.116 110.294 43.982 216.035 121.972 294.026s183.733 121.856 294.028 121.974h306.762l-137.402 137.358c-2.973 2.973-5.331 6.503-6.941 10.388s-2.438 8.048-2.438 12.252c0 4.205 0.829 8.368 2.438 12.253s3.968 7.414 6.941 10.387c6.003 6.005 14.147 9.378 22.64 9.378 4.205 0 8.368-0.828 12.253-2.437s7.414-3.968 10.387-6.941l192-191.998c2.976-2.973 5.334-6.502 6.947-10.387 1.61-3.885 2.438-8.048 2.438-12.253 0-4.208-0.829-8.371-2.438-12.256-1.613-3.885-3.971-7.414-6.947-10.384z" />
<glyph unicode="&#xe930;" glyph-name="ArrowCircleDown" d="M512 864c-82.278 0-162.707-24.398-231.117-70.109s-121.731-110.681-153.217-186.694c-31.486-76.016-39.724-159.658-23.673-240.355 16.052-80.694 55.671-154.819 113.85-212.998s132.303-97.798 212.998-113.85c80.698-16.051 164.342-7.814 240.355 23.674 76.013 31.485 140.986 84.803 186.694 153.216 45.712 68.41 70.109 148.838 70.109 231.117-0.115 110.294-43.981 216.038-121.971 294.028s-183.734 121.856-294.029 121.972zM512 96c-69.619 0-137.674 20.643-195.561 59.322s-103.003 93.654-129.645 157.974c-26.642 64.32-33.613 135.094-20.031 203.376s47.107 131.002 96.335 180.229c49.228 49.228 111.948 82.753 180.229 96.335s139.056 6.611 203.376-20.031c64.32-26.642 119.296-71.759 157.974-129.645s59.322-125.941 59.322-195.561c-0.106-93.325-37.226-182.794-103.216-248.784s-155.459-103.11-248.784-103.216zM662.64 438.64c2.976-2.973 5.334-6.502 6.947-10.387 1.61-3.885 2.438-8.048 2.438-12.253s-0.829-8.368-2.438-12.253c-1.613-3.885-3.971-7.414-6.947-10.387l-128-128c-2.973-2.976-6.502-5.334-10.387-6.947-3.885-1.61-8.048-2.438-12.253-2.438s-8.368 0.829-12.253 2.438c-3.885 1.613-7.414 3.971-10.387 6.947l-128 128c-6.003 6.003-9.379 14.147-9.379 22.64s3.376 16.637 9.379 22.64c6.003 6.003 14.147 9.379 22.64 9.379s16.637-3.376 22.64-9.379l73.36-73.402v242.762c0 8.486 3.373 16.627 9.373 22.627s14.141 9.373 22.627 9.373c8.486 0 16.627-3.373 22.627-9.373s9.373-14.141 9.373-22.627v-242.762l73.36 73.402c2.973 2.976 6.502 5.334 10.387 6.947 3.885 1.61 8.048 2.438 12.253 2.438s8.368-0.829 12.253-2.438c3.885-1.613 7.414-3.971 10.387-6.947z" />
<glyph unicode="&#xe931;" glyph-name="ArrowCircleDownLeft" d="M512 864c-82.278 0-162.707-24.398-231.117-70.109s-121.731-110.681-153.217-186.694c-31.486-76.016-39.724-159.658-23.673-240.355 16.052-80.694 55.671-154.819 113.85-212.998s132.303-97.798 212.998-113.85c80.698-16.051 164.342-7.814 240.355 23.674 76.013 31.485 140.986 84.803 186.694 153.216 45.712 68.41 70.109 148.838 70.109 231.117-0.115 110.294-43.981 216.038-121.971 294.028s-183.734 121.856-294.029 121.972zM512 96c-69.619 0-137.674 20.643-195.561 59.322s-103.003 93.654-129.645 157.974c-26.642 64.32-33.613 135.094-20.031 203.376s47.107 131.002 96.335 180.229c49.228 49.228 111.948 82.753 180.229 96.335s139.056 6.611 203.376-20.031c64.32-26.642 119.296-71.759 157.974-129.645s59.322-125.941 59.322-195.561c-0.106-93.325-37.226-182.794-103.216-248.784s-155.459-103.11-248.784-103.216zM662.64 598.64c2.976-2.973 5.334-6.502 6.947-10.387 1.61-3.885 2.438-8.048 2.438-12.253s-0.829-8.368-2.438-12.253c-1.613-3.885-3.971-7.414-6.947-10.387l-201.398-201.36h114.758c8.486 0 16.627-3.373 22.627-9.373s9.373-14.141 9.373-22.627c0-8.486-3.373-16.627-9.373-22.627s-14.141-9.373-22.627-9.373h-192c-8.486 0-16.627 3.373-22.627 9.373s-9.373 14.141-9.373 22.627v192c0 8.486 3.373 16.627 9.373 22.627s14.141 9.373 22.627 9.373c8.486 0 16.627-3.373 22.627-9.373s9.373-14.141 9.373-22.627v-114.762l201.36 201.402c2.973 2.976 6.502 5.334 10.387 6.947 3.885 1.61 8.048 2.438 12.253 2.438s8.368-0.829 12.253-2.438c3.885-1.613 7.414-3.971 10.387-6.947z" />
<glyph unicode="&#xe932;" glyph-name="ArrowCircleDownRight" d="M512 864c-82.278 0-162.707-24.398-231.117-70.109s-121.731-110.681-153.217-186.694c-31.486-76.016-39.724-159.658-23.673-240.355 16.052-80.694 55.671-154.819 113.85-212.998s132.303-97.798 212.998-113.85c80.698-16.051 164.342-7.814 240.355 23.674 76.013 31.485 140.986 84.803 186.694 153.216 45.712 68.41 70.109 148.838 70.109 231.117-0.115 110.294-43.981 216.038-121.971 294.028s-183.734 121.856-294.029 121.972zM512 96c-69.619 0-137.674 20.643-195.561 59.322s-103.003 93.654-129.645 157.974c-26.642 64.32-33.613 135.094-20.031 203.376s47.107 131.002 96.335 180.229c49.228 49.228 111.948 82.753 180.229 96.335s139.056 6.611 203.376-20.031c64.32-26.642 119.296-71.759 157.974-129.645s59.322-125.941 59.322-195.561c-0.106-93.325-37.226-182.794-103.216-248.784s-155.459-103.11-248.784-103.216zM672 512v-192c0-8.486-3.373-16.627-9.373-22.627s-14.141-9.373-22.627-9.373h-192c-8.486 0-16.627 3.373-22.627 9.373s-9.373 14.141-9.373 22.627c0 8.486 3.373 16.627 9.373 22.627s14.141 9.373 22.627 9.373h114.762l-201.402 201.36c-6.003 6.003-9.379 14.147-9.379 22.64s3.376 16.637 9.379 22.64c6.003 6.003 14.147 9.379 22.64 9.379s16.637-3.376 22.64-9.379l201.36-201.402v114.762c0 8.486 3.373 16.627 9.373 22.627s14.141 9.373 22.627 9.373c8.486 0 16.627-3.373 22.627-9.373s9.373-14.141 9.373-22.627z" />
<glyph unicode="&#xe933;" glyph-name="ArrowCircleLeft" d="M512 864c-82.278 0-162.707-24.398-231.117-70.109s-121.731-110.681-153.217-186.694c-31.486-76.016-39.724-159.658-23.673-240.355 16.052-80.694 55.671-154.819 113.85-212.998s132.303-97.798 212.998-113.85c80.698-16.051 164.342-7.814 240.355 23.674 76.013 31.485 140.986 84.803 186.694 153.216 45.712 68.41 70.109 148.838 70.109 231.117-0.115 110.294-43.981 216.038-121.971 294.028s-183.734 121.856-294.029 121.972zM512 96c-69.619 0-137.674 20.643-195.561 59.322s-103.003 93.654-129.645 157.974c-26.642 64.32-33.613 135.094-20.031 203.376s47.107 131.002 96.335 180.229c49.228 49.228 111.948 82.753 180.229 96.335s139.056 6.611 203.376-20.031c64.32-26.642 119.296-71.759 157.974-129.645s59.322-125.941 59.322-195.561c-0.106-93.325-37.226-182.794-103.216-248.784s-155.459-103.11-248.784-103.216zM704 448c0-8.486-3.373-16.627-9.373-22.627s-14.141-9.373-22.627-9.373h-242.758l73.398-73.36c2.973-2.973 5.331-6.502 6.941-10.387s2.438-8.048 2.438-12.253c0-4.205-0.829-8.368-2.438-12.253s-3.968-7.414-6.941-10.387c-2.973-2.973-6.502-5.331-10.387-6.941s-8.048-2.438-12.253-2.438c-4.205 0-8.368 0.829-12.253 2.438s-7.414 3.968-10.387 6.941l-128 128c-2.976 2.973-5.334 6.502-6.947 10.387-1.61 3.885-2.438 8.048-2.438 12.253s0.828 8.368 2.438 12.253c1.613 3.885 3.971 7.414 6.947 10.387l128 128c6.003 6.003 14.147 9.379 22.64 9.379s16.637-3.376 22.64-9.379c6.003-6.003 9.379-14.147 9.379-22.64s-3.376-16.637-9.379-22.64l-73.398-73.36h242.758c8.486 0 16.627-3.373 22.627-9.373s9.373-14.141 9.373-22.627z" />
<glyph unicode="&#xe934;" glyph-name="ArrowCircleRight" d="M512 864c-82.278 0-162.707-24.398-231.117-70.109s-121.731-110.681-153.217-186.694c-31.486-76.016-39.724-159.658-23.673-240.355 16.052-80.694 55.672-154.819 113.85-212.998s132.304-97.798 212.998-113.85c80.698-16.051 164.339-7.814 240.355 23.674 76.013 31.485 140.982 84.803 186.694 153.216 45.712 68.41 70.109 148.838 70.109 231.117-0.115 110.294-43.984 216.038-121.971 294.028-77.99 77.99-183.734 121.856-294.029 121.972zM512 96c-69.619 0-137.674 20.643-195.561 59.322s-103.003 93.654-129.645 157.974c-26.642 64.32-33.613 135.094-20.031 203.376s47.107 131.002 96.335 180.229c49.228 49.228 111.948 82.753 180.23 96.335s139.056 6.611 203.376-20.031c64.32-26.642 119.296-71.759 157.974-129.645s59.322-125.941 59.322-195.561c-0.106-93.325-37.226-182.794-103.216-248.784s-155.459-103.11-248.784-103.216zM694.64 470.64c2.976-2.973 5.334-6.502 6.947-10.387 1.61-3.885 2.438-8.048 2.438-12.253s-0.829-8.368-2.438-12.253c-1.613-3.885-3.971-7.414-6.947-10.387l-128-128c-6.003-6.003-14.147-9.379-22.64-9.379s-16.637 3.376-22.64 9.379c-6.003 6.003-9.379 14.147-9.379 22.64s3.376 16.637 9.379 22.64l73.398 73.36h-242.758c-8.486 0-16.627 3.373-22.627 9.373s-9.373 14.141-9.373 22.627c0 8.486 3.373 16.627 9.373 22.627s14.141 9.373 22.627 9.373h242.758l-73.398 73.36c-6.003 6.003-9.379 14.147-9.379 22.64s3.376 16.637 9.379 22.64c6.003 6.003 14.147 9.379 22.64 9.379s16.637-3.376 22.64-9.379l128-128z" />
<glyph unicode="&#xe935;" glyph-name="ArrowCircleUp" d="M512 864c-82.278 0-162.707-24.398-231.117-70.109s-121.731-110.681-153.217-186.694c-31.486-76.016-39.724-159.658-23.673-240.355 16.052-80.694 55.671-154.819 113.85-212.998s132.303-97.798 212.998-113.85c80.698-16.051 164.342-7.814 240.355 23.674 76.013 31.485 140.986 84.803 186.694 153.216 45.712 68.41 70.109 148.838 70.109 231.117-0.115 110.294-43.981 216.038-121.971 294.028s-183.734 121.856-294.029 121.972zM512 96c-69.619 0-137.674 20.643-195.561 59.322s-103.003 93.654-129.645 157.974c-26.642 64.32-33.613 135.094-20.031 203.376s47.107 131.002 96.335 180.229c49.228 49.228 111.948 82.753 180.229 96.335s139.056 6.611 203.376-20.031c64.32-26.642 119.296-71.759 157.974-129.645s59.322-125.941 59.322-195.561c-0.106-93.325-37.226-182.794-103.216-248.784s-155.459-103.11-248.784-103.216zM662.64 502.64c2.973-2.973 5.331-6.502 6.941-10.387s2.438-8.048 2.438-12.253c0-4.205-0.829-8.368-2.438-12.253s-3.968-7.414-6.941-10.387c-2.973-2.973-6.502-5.331-10.387-6.941s-8.048-2.438-12.253-2.438c-4.205 0-8.368 0.829-12.253 2.438s-7.414 3.968-10.387 6.941l-73.36 73.402v-242.762c0-8.486-3.373-16.627-9.373-22.627s-14.141-9.373-22.627-9.373c-8.486 0-16.627 3.373-22.627 9.373s-9.373 14.141-9.373 22.627v242.762l-73.36-73.402c-6.003-6.003-14.147-9.379-22.64-9.379s-16.637 3.376-22.64 9.379c-6.003 6.003-9.379 14.147-9.379 22.64s3.376 16.637 9.379 22.64l128 128c2.973 2.976 6.502 5.334 10.387 6.947 3.885 1.61 8.048 2.438 12.253 2.438s8.368-0.828 12.253-2.438c3.885-1.613 7.414-3.971 10.387-6.947l128-128z" />
<glyph unicode="&#xe936;" glyph-name="ArrowCircleUpLeft" d="M512 864c-82.278 0-162.707-24.398-231.117-70.109s-121.731-110.681-153.217-186.694c-31.486-76.016-39.724-159.658-23.673-240.355 16.052-80.694 55.671-154.819 113.85-212.998s132.303-97.798 212.998-113.85c80.698-16.051 164.342-7.814 240.355 23.674 76.013 31.485 140.986 84.803 186.694 153.216 45.712 68.41 70.109 148.838 70.109 231.117-0.115 110.294-43.981 216.038-121.971 294.028s-183.734 121.856-294.029 121.972zM512 96c-69.619 0-137.674 20.643-195.561 59.322s-103.003 93.654-129.645 157.974c-26.642 64.32-33.613 135.094-20.031 203.376s47.107 131.002 96.335 180.229c49.228 49.228 111.948 82.753 180.229 96.335s139.056 6.611 203.376-20.031c64.32-26.642 119.296-71.759 157.974-129.645s59.322-125.941 59.322-195.561c-0.106-93.325-37.226-182.794-103.216-248.784s-155.459-103.11-248.784-103.216zM662.64 342.64c2.973-2.973 5.331-6.502 6.941-10.387s2.438-8.048 2.438-12.253c0-4.205-0.829-8.368-2.438-12.253s-3.968-7.414-6.941-10.387c-2.973-2.973-6.502-5.331-10.387-6.941s-8.048-2.438-12.253-2.438c-4.205 0-8.368 0.829-12.253 2.438s-7.414 3.968-10.387 6.941l-201.36 201.402v-114.762c0-8.486-3.373-16.627-9.373-22.627s-14.141-9.373-22.627-9.373c-8.486 0-16.627 3.373-22.627 9.373s-9.373 14.141-9.373 22.627v192c0 8.486 3.373 16.627 9.373 22.627s14.141 9.373 22.627 9.373h192c8.486 0 16.627-3.373 22.627-9.373s9.373-14.141 9.373-22.627c0-8.486-3.373-16.627-9.373-22.627s-14.141-9.373-22.627-9.373h-114.758l201.398-201.36z" />
<glyph unicode="&#xe937;" glyph-name="ArrowCircleUpRight" d="M672 576v-192c0-8.486-3.373-16.627-9.373-22.627s-14.141-9.373-22.627-9.373c-8.486 0-16.627 3.373-22.627 9.373s-9.373 14.141-9.373 22.627v114.762l-201.36-201.402c-2.973-2.973-6.502-5.331-10.387-6.941s-8.048-2.438-12.253-2.438c-4.205 0-8.368 0.829-12.253 2.438s-7.414 3.968-10.387 6.941c-2.973 2.973-5.331 6.502-6.941 10.387s-2.438 8.048-2.438 12.253c0 4.205 0.829 8.368 2.438 12.253s3.968 7.414 6.941 10.387l201.402 201.36h-114.762c-8.486 0-16.627 3.373-22.627 9.373s-9.373 14.141-9.373 22.627c0 8.486 3.373 16.627 9.373 22.627s14.141 9.373 22.627 9.373h192c8.486 0 16.627-3.373 22.627-9.373s9.373-14.141 9.373-22.627zM928 448c0-82.278-24.397-162.707-70.109-231.117-45.709-68.413-110.682-121.731-186.694-153.216-76.013-31.488-159.658-39.725-240.355-23.674-80.694 16.051-154.819 55.67-212.998 113.85s-97.799 132.304-113.85 212.998c-16.052 80.698-7.813 164.339 23.673 240.355 31.486 76.013 84.806 140.984 153.217 186.694s148.839 70.109 231.117 70.109c110.294-0.116 216.038-43.982 294.029-121.972s121.856-183.733 121.971-294.028zM864 448c0 69.619-20.643 137.674-59.322 195.561s-93.654 103.003-157.974 129.645c-64.32 26.642-135.094 33.613-203.376 20.031s-131.001-47.107-180.229-96.335c-49.228-49.228-82.753-111.948-96.335-180.229s-6.611-139.056 20.031-203.376c26.642-64.32 71.759-119.296 129.645-157.974s125.941-59.322 195.561-59.322c93.325 0.106 182.794 37.226 248.784 103.216s103.11 155.459 103.216 248.784z" />
<glyph unicode="&#xe938;" glyph-name="ArrowClockwise" d="M960 736.001v-192.001c0-8.486-3.373-16.624-9.373-22.627-6-6-14.141-9.373-22.627-9.373h-192c-8.486 0-16.627 3.373-22.627 9.373-6.003 6.003-9.373 14.141-9.373 22.627s3.37 16.627 9.373 22.627c6 6.003 14.141 9.373 22.627 9.373h109.6l-107.36 98.401c-44.477 44.46-101.069 74.83-162.707 87.314-61.635 12.484-125.584 6.531-183.856-17.118-58.275-23.649-108.287-63.943-143.792-115.851s-54.928-113.123-55.843-176.006c-0.915-62.883 16.719-124.64 50.699-177.558s82.798-94.65 140.36-119.984c57.558-25.334 121.309-33.146 183.283-22.461 61.971 10.688 119.424 39.398 165.174 82.544 6.17 5.837 14.403 8.982 22.893 8.746 8.486-0.237 16.534-3.837 22.368-10.003 5.837-6.17 8.979-14.403 8.746-22.893-0.237-8.486-3.837-16.534-10.006-22.368-71.139-67.469-165.514-104.982-263.558-104.762h-5.28c-62.89 0.861-124.608 17.158-179.725 47.456-55.117 30.301-101.948 73.674-136.377 126.31s-55.401 112.925-61.074 175.565c-5.673 62.64 4.128 125.715 28.54 183.68s62.69 109.046 111.467 148.754c48.777 39.708 106.561 66.826 168.276 78.972 61.712 12.146 125.462 8.947 185.648-9.316 60.189-18.262 114.966-51.029 159.523-95.42l113.002-103.201v119.201c0 8.487 3.37 16.626 9.373 22.627 6 6.001 14.141 9.373 22.627 9.373s16.627-3.372 22.627-9.373c6-6.001 9.373-14.14 9.373-22.627z" />
<glyph unicode="&#xe939;" glyph-name="ArrowCounterClockwise" d="M896 447.997c0.010-100.954-39.738-197.853-110.64-269.718-70.902-71.869-167.254-112.925-268.202-114.282h-5.158c-98.070-0.243-192.469 37.286-263.6 104.8-3.054 2.89-5.51 6.352-7.227 10.192-1.716 3.837-2.66 7.974-2.777 12.179-0.117 4.202 0.595 8.387 2.095 12.314 1.5 3.93 3.759 7.523 6.648 10.576 2.889 3.056 6.352 5.51 10.19 7.226 3.838 1.718 7.977 2.662 12.18 2.778 4.203 0.118 8.388-0.595 12.315-2.093 3.928-1.501 7.522-3.76 10.576-6.65 45.75-43.149 103.203-71.859 165.178-82.544s125.722-2.874 183.283 22.461c57.558 25.334 106.378 67.066 140.358 119.984s51.613 114.675 50.698 177.558c-0.915 62.88-20.336 124.099-55.843 176.006-35.504 51.907-85.517 92.202-143.789 115.85s-122.221 29.603-183.859 17.118c-61.635-12.484-118.227-42.854-162.706-87.314-0.327-0.353-0.674-0.687-1.040-1l-106.32-97.441h109.64c8.487 0 16.626-3.37 22.628-9.37 6.001-6.003 9.372-14.141 9.372-22.63 0-8.486-3.372-16.624-9.372-22.627-6.001-6-14.14-9.373-22.628-9.373h-192c-8.487 0-16.626 3.373-22.628 9.373-6.001 6.003-9.372 14.141-9.372 22.627v192.001c0 8.487 3.372 16.626 9.372 22.628s14.14 9.372 22.628 9.372c8.487 0 16.626-3.371 22.628-9.372s9.372-14.14 9.372-22.628v-119.201l113 103.201c53.759 53.55 122.178 89.973 196.622 104.671 74.442 14.697 151.568 7.011 221.648-22.090 70.077-29.101 129.962-78.311 172.093-141.419 42.134-63.106 64.624-137.282 64.637-213.164z" />
<glyph unicode="&#xe93a;" glyph-name="ArrowDown" d="M822.64 361.36l-288-288c-2.973-2.976-6.502-5.334-10.387-6.947-3.885-1.61-8.048-2.438-12.253-2.438s-8.368 0.829-12.253 2.438c-3.885 1.613-7.414 3.971-10.387 6.947l-288 288c-6.004 6.003-9.378 14.147-9.378 22.64s3.373 16.637 9.378 22.64c6.004 6.003 14.148 9.379 22.64 9.379s16.636-3.376 22.64-9.379l233.36-233.402v626.762c0 8.487 3.373 16.626 9.373 22.628s14.141 9.372 22.627 9.372c8.486 0 16.627-3.372 22.627-9.372 6.003-6.001 9.373-14.14 9.373-22.628v-626.762l233.36 233.402c6.003 6.003 14.147 9.379 22.64 9.379s16.637-3.376 22.64-9.379c6.003-6.003 9.379-14.147 9.379-22.64s-3.376-16.637-9.379-22.64z" />
<glyph unicode="&#xe93b;" glyph-name="ArrowDownLeft" d="M790.64 681.362l-457.402-457.358h338.762c8.486 0 16.627-3.373 22.627-9.373 6-6.003 9.373-14.141 9.373-22.627 0-8.49-3.373-16.627-9.373-22.63-6-6-14.141-9.37-22.627-9.37h-416c-8.487 0-16.626 3.37-22.628 9.37-6.001 6.003-9.372 14.141-9.372 22.63v416c0 8.486 3.372 16.624 9.372 22.627 6.001 6 14.14 9.371 22.628 9.371s16.626-3.371 22.628-9.371c6.001-6.003 9.372-14.141 9.372-22.627v-338.762l457.36 457.4c2.973 2.973 6.502 5.332 10.387 6.941s8.048 2.437 12.253 2.437c4.205 0 8.368-0.828 12.253-2.437s7.414-3.968 10.387-6.941c2.973-2.973 5.331-6.503 6.941-10.387s2.438-8.048 2.438-12.253c0-4.204-0.829-8.368-2.438-12.252s-3.968-7.414-6.941-10.388z" />
<glyph unicode="&#xe93c;" glyph-name="ArrowDownRight" d="M800 608.003v-416c0-8.49-3.373-16.627-9.373-22.63-6-6-14.141-9.37-22.627-9.37h-416c-8.486 0-16.627 3.37-22.627 9.37-6 6.003-9.373 14.141-9.373 22.63 0 8.486 3.373 16.624 9.373 22.627 6 6 14.141 9.373 22.627 9.373h338.758l-457.398 457.358c-6.004 6.004-9.378 14.148-9.378 22.64s3.373 16.636 9.378 22.64c6.004 6.005 14.148 9.378 22.64 9.378s16.636-3.373 22.64-9.378l457.36-457.4v338.762c0 8.486 3.373 16.624 9.373 22.627 6 6 14.141 9.371 22.627 9.371s16.627-3.371 22.627-9.371c6-6.003 9.373-14.141 9.373-22.627z" />
<glyph unicode="&#xe93d;" glyph-name="ArrowElbowDownLeft" d="M800 832v-576c0-8.486-3.373-16.627-9.373-22.627s-14.141-9.373-22.627-9.373h-498.76l137.4-137.36c2.973-2.973 5.331-6.502 6.941-10.387s2.435-8.048 2.435-12.253c0-4.205-0.826-8.368-2.435-12.253s-3.968-7.414-6.941-10.387c-2.973-2.973-6.502-5.331-10.387-6.941s-8.048-2.438-12.253-2.438c-4.205 0-8.368 0.829-12.253 2.438s-7.414 3.968-10.387 6.941l-192 192c-2.975 2.973-5.335 6.502-6.946 10.387s-2.439 8.048-2.439 12.253c0 4.205 0.829 8.368 2.439 12.253s3.971 7.414 6.946 10.387l192 192c6.003 6.003 14.147 9.379 22.64 9.379s16.637-3.376 22.64-9.379c6.003-6.003 9.376-14.147 9.376-22.64s-3.373-16.637-9.376-22.64l-137.4-137.36h466.76v544c0 8.487 3.37 16.626 9.373 22.628 6 6.001 14.141 9.372 22.627 9.372s16.627-3.372 22.627-9.372c6-6.001 9.373-14.14 9.373-22.628z" />
<glyph unicode="&#xe93e;" glyph-name="ArrowElbowDownRight" d="M854.64 233.36l-192-192c-6.003-6.003-14.147-9.379-22.64-9.379s-16.637 3.376-22.64 9.379c-6.003 6.003-9.379 14.147-9.379 22.64s3.376 16.637 9.379 22.64l137.402 137.36h-498.762c-8.487 0-16.626 3.373-22.628 9.373s-9.372 14.141-9.372 22.627v576c0 8.487 3.372 16.626 9.372 22.628s14.14 9.372 22.628 9.372c8.487 0 16.626-3.372 22.628-9.372s9.372-14.14 9.372-22.628v-544h466.762l-137.402 137.36c-6.003 6.003-9.379 14.147-9.379 22.64s3.376 16.637 9.379 22.64c6.003 6.003 14.147 9.379 22.64 9.379s16.637-3.376 22.64-9.379l192-192c2.976-2.973 5.334-6.502 6.947-10.387 1.61-3.885 2.438-8.048 2.438-12.253s-0.829-8.368-2.438-12.253c-1.613-3.885-3.971-7.414-6.947-10.387z" />
<glyph unicode="&#xe93f;" glyph-name="ArrowElbowLeft" d="M950.64 553.36l-384-384c-2.973-2.976-6.502-5.334-10.387-6.947-3.885-1.61-8.048-2.438-12.253-2.438s-8.368 0.829-12.253 2.438c-3.885 1.613-7.414 3.971-10.387 6.947l-393.36 393.402v-210.762c0-8.486-3.372-16.627-9.372-22.627s-14.14-9.373-22.628-9.373c-8.487 0-16.626 3.373-22.628 9.373s-9.372 14.141-9.372 22.627v288c0 8.487 3.372 16.626 9.372 22.628s14.14 9.372 22.628 9.372h288c8.486 0 16.627-3.372 22.627-9.372s9.373-14.14 9.373-22.628c0-8.486-3.373-16.627-9.373-22.627s-14.141-9.373-22.627-9.373h-210.76l370.76-370.762 361.36 361.402c2.973 2.973 6.502 5.331 10.387 6.941s8.048 2.438 12.253 2.438c4.205 0 8.368-0.829 12.253-2.438s7.414-3.968 10.387-6.941c2.973-2.973 5.331-6.502 6.941-10.387s2.438-8.048 2.438-12.253c0-4.205-0.829-8.368-2.438-12.253s-3.968-7.414-6.941-10.387z" />
<glyph unicode="&#xe940;" glyph-name="ArrowElbowLeftDown" d="M928 704c0-8.487-3.37-16.626-9.373-22.628-6-6.001-14.141-9.372-22.627-9.372h-544v-466.762l137.36 137.402c6.003 6.003 14.147 9.379 22.64 9.379s16.637-3.376 22.64-9.379c6.003-6.003 9.379-14.147 9.379-22.64s-3.376-16.637-9.379-22.64l-192-192c-2.973-2.976-6.502-5.334-10.387-6.947-3.885-1.61-8.048-2.438-12.253-2.438s-8.369 0.829-12.254 2.438c-3.885 1.613-7.414 3.971-10.386 6.947l-192 192c-6.004 6.003-9.378 14.147-9.378 22.64s3.373 16.637 9.378 22.64c6.004 6.003 14.148 9.379 22.64 9.379s16.636-3.376 22.64-9.379l137.36-137.402v498.762c0 8.487 3.371 16.626 9.372 22.628s14.14 9.372 22.627 9.372h576c8.486 0 16.627-3.372 22.627-9.372 6.003-6.001 9.373-14.14 9.373-22.628z" />
<glyph unicode="&#xe941;" glyph-name="ArrowElbowLeftUp" d="M928 191.997c0-8.486-3.37-16.624-9.373-22.627-6-6-14.141-9.373-22.627-9.373h-576c-8.487 0-16.626 3.373-22.627 9.373-6.001 6.003-9.372 14.141-9.372 22.627v498.762l-137.36-137.402c-6.004-6.003-14.148-9.376-22.64-9.376s-16.636 3.373-22.64 9.376c-6.004 6.006-9.378 14.15-9.378 22.64 0 8.493 3.373 16.637 9.378 22.64l192 192.002c2.972 2.975 6.501 5.335 10.386 6.946s8.049 2.439 12.254 2.439c4.205 0 8.368-0.829 12.253-2.439s7.414-3.971 10.387-6.946l192-192.002c6.003-6.003 9.379-14.147 9.379-22.64 0-8.49-3.376-16.634-9.379-22.64-6.003-6.003-14.147-9.376-22.64-9.376s-16.637 3.373-22.64 9.376l-137.36 137.402v-466.762h544c8.486 0 16.627-3.37 22.627-9.37 6.003-6.003 9.373-14.141 9.373-22.63z" />
<glyph unicode="&#xe942;" glyph-name="ArrowElbowRight" d="M960 640v-288c0-8.486-3.37-16.627-9.373-22.627-6-6-14.141-9.373-22.627-9.373s-16.627 3.373-22.627 9.373c-6 6-9.373 14.141-9.373 22.627v210.762l-393.36-393.402c-2.973-2.976-6.502-5.334-10.387-6.947-3.885-1.61-8.048-2.438-12.253-2.438s-8.368 0.829-12.253 2.438c-3.885 1.613-7.414 3.971-10.387 6.947l-384 384c-6.004 6.003-9.378 14.147-9.378 22.64s3.373 16.637 9.378 22.64c6.004 6.003 14.148 9.379 22.64 9.379s16.636-3.376 22.64-9.379l361.36-361.402 370.762 370.762h-210.762c-8.486 0-16.627 3.373-22.627 9.373s-9.373 14.141-9.373 22.627c0 8.487 3.373 16.626 9.373 22.628s14.141 9.372 22.627 9.372h288c8.486 0 16.627-3.372 22.627-9.372 6.003-6.001 9.373-14.14 9.373-22.628z" />
<glyph unicode="&#xe943;" glyph-name="ArrowElbowRightDown" d="M918.64 297.36l-192-192c-2.973-2.976-6.502-5.334-10.387-6.947-3.885-1.61-8.048-2.438-12.253-2.438s-8.368 0.829-12.253 2.438c-3.885 1.613-7.414 3.971-10.387 6.947l-192 192c-6.003 6.003-9.379 14.147-9.379 22.64s3.376 16.637 9.379 22.64c6.003 6.003 14.147 9.379 22.64 9.379s16.637-3.376 22.64-9.379l137.36-137.402v466.762h-544c-8.487 0-16.626 3.372-22.628 9.372s-9.372 14.14-9.372 22.628c0 8.487 3.372 16.626 9.372 22.628s14.14 9.372 22.628 9.372h576c8.486 0 16.627-3.372 22.627-9.372s9.373-14.14 9.373-22.628v-498.762l137.36 137.402c6.003 6.003 14.147 9.379 22.64 9.379s16.637-3.376 22.64-9.379c6.003-6.003 9.379-14.147 9.379-22.64s-3.376-16.637-9.379-22.64z" />
<glyph unicode="&#xe944;" glyph-name="ArrowElbowRightUp" d="M918.64 553.357c-2.973-2.973-6.502-5.334-10.387-6.944s-8.048-2.438-12.253-2.438c-4.205 0-8.368 0.829-12.253 2.438s-7.414 3.971-10.387 6.944l-137.36 137.402v-498.762c0-8.486-3.373-16.624-9.373-22.627-6-6-14.141-9.373-22.627-9.373h-576c-8.487 0-16.626 3.373-22.628 9.373-6.001 6.003-9.372 14.141-9.372 22.627 0 8.49 3.372 16.627 9.372 22.63 6.001 6 14.14 9.37 22.628 9.37h544v466.762l-137.36-137.402c-6.003-6.003-14.147-9.376-22.64-9.376s-16.637 3.373-22.64 9.376c-6.003 6.006-9.379 14.15-9.379 22.64 0 8.493 3.376 16.637 9.379 22.64l192 192.002c2.973 2.975 6.502 5.335 10.387 6.946s8.048 2.439 12.253 2.439c4.205 0 8.368-0.829 12.253-2.439s7.414-3.971 10.387-6.946l192-192.002c2.976-2.97 5.334-6.499 6.947-10.384 1.61-3.885 2.438-8.048 2.438-12.256 0-4.205-0.829-8.368-2.438-12.253-1.613-3.885-3.971-7.414-6.947-10.387z" />
<glyph unicode="&#xe945;" glyph-name="ArrowElbowUpLeft" d="M800 640.002v-575.998c0-8.49-3.373-16.627-9.373-22.63-6-6-14.141-9.37-22.627-9.37s-16.627 3.37-22.627 9.37c-6.003 6.003-9.373 14.141-9.373 22.63v544h-466.76l137.4-137.36c6.003-6.006 9.376-14.15 9.376-22.64 0-8.493-3.373-16.637-9.376-22.64-6.003-6.006-14.147-9.379-22.64-9.379s-16.637 3.373-22.64 9.379l-192.24 192.278c-0.64 0.64-1.28 1.36-1.88 2.080l-0.92 1.242c-0.329 0.41-0.636 0.835-0.92 1.28l-0.92 1.478c-0.25 0.387-0.477 0.787-0.68 1.2-0.28 0.48-0.52 1.002-0.76 1.52-0.24 0.522-0.4 0.842-0.6 1.322s-0.36 0.998-0.56 1.478l-0.52 1.44-0.36 1.562c0 0.518-0.28 0.998-0.4 1.478s0 1.242-0.24 1.84c-0.24 0.602 0 0.842-0.2 1.28-0.2 2.102-0.2 4.218 0 6.32 0 0.44 0 0.84 0.2 1.28s0 1.24 0.24 1.84c0.24 0.6 0.24 0.96 0.4 1.48l0.36 1.56 0.52 1.44c0.2 0.48 0.36 1 0.56 1.48s0.4 0.88 0.6 1.32c0.2 0.44 0.48 1.040 0.76 1.52 0.203 0.413 0.43 0.814 0.68 1.2l0.92 1.48c0.284 0.443 0.591 0.87 0.92 1.28l0.92 1.24c0.6 0.72 1.24 1.44 1.88 2.080l0.24 0.28 192 192c6.003 6.005 14.147 9.378 22.64 9.378s16.637-3.373 22.64-9.378c6.003-6.004 9.376-14.148 9.376-22.64s-3.373-16.635-9.376-22.64l-137.4-137.36h498.76c8.486 0 16.627-3.371 22.627-9.372s9.373-14.14 9.373-22.628z" />
<glyph unicode="&#xe946;" glyph-name="ArrowElbowUpRight" d="M854.64 617.363l-192-192c-6.003-6.006-14.147-9.379-22.64-9.379s-16.637 3.373-22.64 9.379c-6.003 6.003-9.379 14.147-9.379 22.64 0 8.49 3.376 16.634 9.379 22.64l137.402 137.36h-466.762v-544c0-8.49-3.372-16.627-9.372-22.63-6.001-6-14.14-9.37-22.628-9.37s-16.626 3.37-22.628 9.37c-6.001 6.003-9.372 14.141-9.372 22.63v575.998c0 8.487 3.372 16.626 9.372 22.628s14.14 9.372 22.628 9.372h498.762l-137.402 137.36c-6.003 6.005-9.379 14.148-9.379 22.64s3.376 16.636 9.379 22.64c6.003 6.005 14.147 9.378 22.64 9.378s16.637-3.373 22.64-9.378l192-192c2.976-2.972 5.334-6.501 6.947-10.386 1.61-3.884 2.438-8.049 2.438-12.254s-0.829-8.37-2.438-12.254c-1.613-3.885-3.971-7.414-6.947-10.384z" />
<glyph unicode="&#xe947;" glyph-name="ArrowFatDown" d="M925.558 428.24c-2.419 5.846-6.518 10.845-11.782 14.365-5.261 3.517-11.446 5.395-17.776 5.395h-160v320c0 16.974-6.742 33.252-18.746 45.255s-28.282 18.745-45.254 18.745h-320c-16.973 0-33.253-6.743-45.255-18.745s-18.745-28.281-18.745-45.255v-320h-160c-6.332 0.006-12.524-1.869-17.791-5.386s-9.372-8.515-11.796-14.365c-2.424-5.85-3.058-12.288-1.821-18.499s4.289-11.914 8.769-16.39l384-384c2.973-2.976 6.502-5.334 10.387-6.947 3.885-1.61 8.048-2.438 12.253-2.438s8.368 0.829 12.253 2.438c3.885 1.613 7.414 3.971 10.387 6.947l384 384c4.474 4.477 7.52 10.182 8.752 16.39s0.592 12.643-1.834 18.49zM512 77.238l-306.76 306.762h114.76c8.487 0 16.628 3.373 22.628 9.373s9.373 14.141 9.373 22.627v352h320v-352c0-8.486 3.373-16.627 9.373-22.627s14.141-9.373 22.627-9.373h114.758l-306.758-306.762z" />
<glyph unicode="&#xe948;" glyph-name="ArrowFatLeft" d="M832 671.998h-320v160c0.003 6.333-1.869 12.524-5.386 17.792s-8.515 9.372-14.365 11.796c-5.85 2.424-12.288 3.058-18.499 1.821s-11.917-4.288-16.39-8.769l-384-384.001c-2.975-2.97-5.335-6.499-6.946-10.384s-2.439-8.048-2.439-12.256c0-4.205 0.829-8.368 2.439-12.253s3.971-7.414 6.946-10.387l384-384c4.474-4.48 10.179-7.53 16.39-8.768 6.211-1.235 12.65-0.602 18.499 1.821 5.85 2.426 10.848 6.531 14.365 11.798s5.389 11.456 5.386 17.789v160h320c16.973 0 33.251 6.746 45.254 18.746 12.003 12.003 18.746 28.282 18.746 45.254v320c0 16.976-6.742 33.254-18.746 45.256s-28.282 18.745-45.254 18.745zM832 287.997h-352c-8.486 0-16.627-3.37-22.627-9.37-6-6.003-9.373-14.141-9.373-22.63v-114.758l-306.76 306.758 306.76 306.761v-114.761c0-8.486 3.373-16.624 9.373-22.627 6-6 14.141-9.373 22.627-9.373h352v-320z" />
<glyph unicode="&#xe949;" glyph-name="ArrowFatLineDown" d="M925.558 428.24c-2.419 5.846-6.518 10.845-11.782 14.365-5.261 3.517-11.446 5.395-17.776 5.395h-160v224c0 8.487-3.373 16.626-9.373 22.628s-14.141 9.372-22.627 9.372h-384c-8.487 0-16.626-3.372-22.627-9.372s-9.373-14.14-9.373-22.628v-224h-160c-6.332 0.006-12.524-1.869-17.791-5.386s-9.372-8.515-11.796-14.365c-2.424-5.85-3.058-12.288-1.821-18.499s4.289-11.914 8.769-16.39l384-384c2.973-2.976 6.502-5.334 10.387-6.947 3.885-1.61 8.048-2.438 12.253-2.438s8.368 0.829 12.253 2.438c3.885 1.613 7.414 3.971 10.387 6.947l384 384c4.474 4.477 7.52 10.182 8.752 16.39s0.592 12.643-1.834 18.49zM512 77.238l-306.76 306.762h114.76c8.487 0 16.628 3.373 22.628 9.373s9.373 14.141 9.373 22.627v224h320v-224c0-8.486 3.373-16.627 9.373-22.627s14.141-9.373 22.627-9.373h114.758l-306.758-306.762zM288 800c0 8.487 3.372 16.626 9.373 22.628s14.14 9.372 22.627 9.372h384c8.486 0 16.627-3.372 22.627-9.372s9.373-14.14 9.373-22.628c0-8.487-3.373-16.626-9.373-22.628s-14.141-9.372-22.627-9.372h-384c-8.487 0-16.626 3.372-22.627 9.372s-9.373 14.14-9.373 22.628z" />
<glyph unicode="&#xe94a;" glyph-name="ArrowFatLineLeft" d="M736 671.998h-224v160c0.003 6.333-1.869 12.524-5.386 17.792s-8.515 9.372-14.365 11.796c-5.85 2.424-12.288 3.058-18.499 1.821s-11.917-4.288-16.39-8.769l-384-384.001c-2.975-2.97-5.335-6.499-6.946-10.384s-2.439-8.048-2.439-12.256c0-4.205 0.829-8.368 2.439-12.253s3.971-7.414 6.946-10.387l384-384c4.474-4.48 10.179-7.53 16.39-8.768 6.211-1.235 12.65-0.602 18.499 1.821 5.85 2.426 10.848 6.531 14.365 11.798s5.389 11.456 5.386 17.789v160h224c8.486 0 16.627 3.373 22.627 9.373 6 6.003 9.373 14.141 9.373 22.627v384c0 8.488-3.373 16.628-9.373 22.629s-14.141 9.372-22.627 9.372zM704 287.997h-224c-8.486 0-16.627-3.37-22.627-9.37-6-6.003-9.373-14.141-9.373-22.63v-114.758l-306.76 306.758 306.76 306.761v-114.761c0-8.486 3.373-16.624 9.373-22.627 6-6 14.141-9.373 22.627-9.373h224v-320zM896 639.997v-384c0-8.486-3.373-16.624-9.373-22.627-6-6-14.141-9.373-22.627-9.373s-16.627 3.373-22.627 9.373c-6.003 6.003-9.373 14.141-9.373 22.627v384c0 8.488 3.37 16.628 9.373 22.629 6 6.001 14.141 9.372 22.627 9.372s16.627-3.371 22.627-9.372c6-6.001 9.373-14.14 9.373-22.629z" />
<glyph unicode="&#xe94b;" glyph-name="ArrowFatLineRight" d="M950.64 470.637l-384 384.001c-4.477 4.481-10.179 7.532-16.39 8.769s-12.65 0.603-18.499-1.821c-5.85-2.424-10.848-6.53-14.365-11.796s-5.392-11.459-5.386-17.792v-160h-224c-8.487 0-16.626-3.371-22.628-9.372s-9.372-14.14-9.372-22.629v-384c0-8.486 3.372-16.624 9.372-22.627 6.001-6 14.14-9.373 22.628-9.373h224v-160c-0.006-6.333 1.869-12.522 5.386-17.789s8.515-9.373 14.365-11.798c5.85-2.422 12.288-3.056 18.499-1.821 6.211 1.238 11.914 4.288 16.39 8.768l384 384c2.976 2.973 5.334 6.502 6.947 10.387 1.61 3.885 2.438 8.048 2.438 12.253 0 4.208-0.829 8.371-2.438 12.256-1.613 3.885-3.971 7.414-6.947 10.384zM576 141.238v114.758c0 8.49-3.373 16.627-9.373 22.63-6 6-14.141 9.37-22.627 9.37h-224v320h224c8.486 0 16.627 3.373 22.627 9.373 6 6.003 9.373 14.141 9.373 22.627v114.761l306.762-306.761-306.762-306.758zM192 639.997v-384c0-8.486-3.372-16.624-9.372-22.627-6.001-6-14.14-9.373-22.628-9.373s-16.626 3.373-22.628 9.373c-6.001 6.003-9.372 14.141-9.372 22.627v384c0 8.488 3.372 16.628 9.372 22.629s14.14 9.372 22.628 9.372c8.487 0 16.626-3.371 22.628-9.372s9.372-14.14 9.372-22.629z" />
<glyph unicode="&#xe94c;" glyph-name="ArrowFatLinesDown" d="M925.558 428.24c-2.419 5.846-6.518 10.845-11.782 14.365-5.261 3.517-11.446 5.395-17.776 5.395h-160v96c0 8.486-3.373 16.627-9.373 22.627s-14.141 9.373-22.627 9.373h-384c-8.487 0-16.626-3.373-22.627-9.373s-9.373-14.141-9.373-22.627v-96h-160c-6.332 0.006-12.524-1.869-17.791-5.386s-9.372-8.515-11.796-14.365c-2.424-5.85-3.058-12.288-1.821-18.499s4.289-11.914 8.769-16.39l384-384c2.973-2.976 6.502-5.334 10.387-6.947 3.885-1.61 8.048-2.438 12.253-2.438s8.368 0.829 12.253 2.438c3.885 1.613 7.414 3.971 10.387 6.947l384 384c4.474 4.477 7.52 10.182 8.752 16.39s0.592 12.643-1.834 18.49zM512 77.238l-306.76 306.762h114.76c8.487 0 16.628 3.373 22.628 9.373s9.373 14.141 9.373 22.627v96h320v-96c0-8.486 3.373-16.627 9.373-22.627s14.141-9.373 22.627-9.373h114.758l-306.758-306.762zM288 800c0 8.487 3.372 16.626 9.373 22.628s14.14 9.372 22.627 9.372h384c8.486 0 16.627-3.372 22.627-9.372s9.373-14.14 9.373-22.628c0-8.487-3.373-16.626-9.373-22.628s-14.141-9.372-22.627-9.372h-384c-8.487 0-16.626 3.372-22.627 9.372s-9.373 14.14-9.373 22.628zM288 672c0 8.487 3.372 16.626 9.373 22.628s14.14 9.372 22.627 9.372h384c8.486 0 16.627-3.372 22.627-9.372s9.373-14.14 9.373-22.628c0-8.487-3.373-16.626-9.373-22.628s-14.141-9.372-22.627-9.372h-384c-8.487 0-16.626 3.372-22.627 9.372s-9.373 14.14-9.373 22.628z" />
<glyph unicode="&#xe94d;" glyph-name="ArrowFatLinesLeft" d="M608 671.998h-96v160c0.003 6.333-1.869 12.524-5.386 17.792s-8.515 9.372-14.365 11.796c-5.85 2.424-12.288 3.058-18.499 1.821s-11.917-4.288-16.39-8.769l-384-384.001c-2.975-2.97-5.335-6.499-6.946-10.384s-2.439-8.048-2.439-12.256c0-4.205 0.829-8.368 2.439-12.253s3.971-7.414 6.946-10.387l384-384c4.474-4.48 10.179-7.53 16.39-8.768 6.211-1.235 12.65-0.602 18.499 1.821 5.85 2.426 10.848 6.531 14.365 11.798s5.389 11.456 5.386 17.789v160h96c8.486 0 16.627 3.373 22.627 9.373 6 6.003 9.373 14.141 9.373 22.627v384c0 8.488-3.373 16.628-9.373 22.629s-14.141 9.372-22.627 9.372zM576 287.997h-96c-8.486 0-16.627-3.37-22.627-9.37-6-6.003-9.373-14.141-9.373-22.63v-114.758l-306.76 306.758 306.76 306.761v-114.761c0-8.486 3.373-16.624 9.373-22.627 6-6 14.141-9.373 22.627-9.373h96v-320zM896 639.997v-384c0-8.486-3.373-16.624-9.373-22.627-6-6-14.141-9.373-22.627-9.373s-16.627 3.373-22.627 9.373c-6.003 6.003-9.373 14.141-9.373 22.627v384c0 8.488 3.37 16.628 9.373 22.629 6 6.001 14.141 9.372 22.627 9.372s16.627-3.371 22.627-9.372c6-6.001 9.373-14.14 9.373-22.629zM768 639.997v-384c0-8.486-3.373-16.624-9.373-22.627-6-6-14.141-9.373-22.627-9.373s-16.627 3.373-22.627 9.373c-6.003 6.003-9.373 14.141-9.373 22.627v384c0 8.488 3.37 16.628 9.373 22.629 6 6.001 14.141 9.372 22.627 9.372s16.627-3.371 22.627-9.372c6-6.001 9.373-14.14 9.373-22.629z" />
<glyph unicode="&#xe94e;" glyph-name="ArrowFatLinesRight" d="M950.64 470.637l-384 384.001c-4.477 4.481-10.179 7.532-16.39 8.769s-12.65 0.603-18.499-1.821c-5.85-2.424-10.848-6.53-14.365-11.796s-5.392-11.459-5.386-17.792v-160h-96c-8.486 0-16.627-3.371-22.627-9.372s-9.373-14.14-9.373-22.629v-384c0-8.486 3.373-16.624 9.373-22.627 6-6 14.141-9.373 22.627-9.373h96v-160c-0.006-6.333 1.869-12.522 5.386-17.789s8.515-9.373 14.365-11.798c5.85-2.422 12.288-3.056 18.499-1.821 6.211 1.238 11.914 4.288 16.39 8.768l384 384c2.976 2.973 5.334 6.502 6.947 10.387 1.61 3.885 2.438 8.048 2.438 12.253 0 4.208-0.829 8.371-2.438 12.256-1.613 3.885-3.971 7.414-6.947 10.384zM576 141.238v114.758c0 8.49-3.373 16.627-9.373 22.63-6 6-14.141 9.37-22.627 9.37h-96v320h96c8.486 0 16.627 3.373 22.627 9.373 6 6.003 9.373 14.141 9.373 22.627v114.761l306.762-306.761-306.762-306.758zM192 639.997v-384c0-8.486-3.372-16.624-9.372-22.627-6.001-6-14.14-9.373-22.628-9.373s-16.626 3.373-22.628 9.373c-6.001 6.003-9.372 14.141-9.372 22.627v384c0 8.488 3.372 16.628 9.372 22.629s14.14 9.372 22.628 9.372c8.487 0 16.626-3.371 22.628-9.372s9.372-14.14 9.372-22.629zM320 639.997v-384c0-8.486-3.372-16.624-9.372-22.627-6.001-6-14.14-9.373-22.628-9.373s-16.626 3.373-22.628 9.373c-6.001 6.003-9.372 14.141-9.372 22.627v384c0 8.488 3.372 16.628 9.372 22.629s14.14 9.372 22.628 9.372c8.487 0 16.626-3.371 22.628-9.372s9.372-14.14 9.372-22.629z" />
<glyph unicode="&#xe94f;" glyph-name="ArrowFatLinesUp" d="M918.64 502.637l-384 384.002c-2.973 2.975-6.502 5.335-10.387 6.946s-8.048 2.439-12.253 2.439c-4.205 0-8.368-0.829-12.253-2.439s-7.414-3.971-10.387-6.946l-384-384.002c-4.48-4.474-7.532-10.179-8.769-16.387-1.237-6.211-0.603-12.65 1.821-18.499 2.424-5.853 6.53-10.851 11.796-14.368 5.267-3.514 11.459-5.389 17.791-5.386h160v-96c0-8.486 3.372-16.624 9.373-22.627 6.001-6 14.14-9.373 22.627-9.373h384c8.486 0 16.627 3.373 22.627 9.373 6 6.003 9.373 14.141 9.373 22.627v96h160c6.333-0.003 12.525 1.872 17.792 5.386 5.267 3.517 9.373 8.515 11.795 14.368 2.426 5.85 3.059 12.288 1.821 18.499-1.235 6.208-4.288 11.914-8.768 16.387zM704 511.997c-8.486 0-16.627-3.37-22.627-9.37-6-6.003-9.373-14.141-9.373-22.63v-96h-320v96c0 8.49-3.373 16.627-9.373 22.63-6 6-14.141 9.37-22.628 9.37h-114.76l306.76 306.762 306.758-306.762h-114.758zM736 95.997c0-8.486-3.373-16.624-9.373-22.627-6-6-14.141-9.373-22.627-9.373h-384c-8.487 0-16.626 3.373-22.627 9.373-6.001 6.003-9.373 14.141-9.373 22.627 0 8.49 3.372 16.627 9.373 22.63 6.001 6 14.14 9.37 22.627 9.37h384c8.486 0 16.627-3.37 22.627-9.37 6-6.003 9.373-14.141 9.373-22.63zM736 223.997c0-8.486-3.373-16.624-9.373-22.627-6-6-14.141-9.373-22.627-9.373h-384c-8.487 0-16.626 3.373-22.627 9.373-6.001 6.003-9.373 14.141-9.373 22.627 0 8.49 3.372 16.627 9.373 22.63 6.001 6 14.14 9.37 22.627 9.37h384c8.486 0 16.627-3.37 22.627-9.37 6-6.003 9.373-14.141 9.373-22.63z" />
</font>
</defs>
</svg>
